<?xml version="1.0" encoding="utf-8" standalone="no"?>
<!DOCTYPE svg PUBLIC "-//W3C//DTD SVG 1.1//EN"
  "http://www.w3.org/Graphics/SVG/1.1/DTD/svg11.dtd">
<!-- Created with matplotlib (https://matplotlib.org/) -->
<svg height="288pt" version="1.1" viewBox="0 0 432 288" width="432pt" xmlns="http://www.w3.org/2000/svg" xmlns:xlink="http://www.w3.org/1999/xlink">
 <defs>
  <style type="text/css">
*{stroke-linecap:butt;stroke-linejoin:round;}
  </style>
 </defs>
 <g id="figure_1">
  <g id="patch_1">
   <path d="M 0 288 
L 432 288 
L 432 0 
L 0 0 
z
" style="fill:#ffffff;"/>
  </g>
  <g id="axes_1">
   <g id="patch_2">
    <path d="M 54 252 
L 388.8 252 
L 388.8 34.56 
L 54 34.56 
z
" style="fill:#ffffff;"/>
   </g>
   <g id="matplotlib.axis_1">
    <g id="xtick_1">
     <g id="line2d_1">
      <defs>
       <path d="M 0 0 
L 0 3.5 
" id="m0911abe14e" style="stroke:#000000;stroke-width:0.8;"/>
      </defs>
      <g>
       <use style="stroke:#000000;stroke-width:0.8;" x="69.218182" xlink:href="#m0911abe14e" y="252"/>
      </g>
     </g>
     <g id="text_1">
      <!-- 0 -->
      <defs>
       <path d="M 31.78125 66.40625 
Q 24.171875 66.40625 20.328125 58.90625 
Q 16.5 51.421875 16.5 36.375 
Q 16.5 21.390625 20.328125 13.890625 
Q 24.171875 6.390625 31.78125 6.390625 
Q 39.453125 6.390625 43.28125 13.890625 
Q 47.125 21.390625 47.125 36.375 
Q 47.125 51.421875 43.28125 58.90625 
Q 39.453125 66.40625 31.78125 66.40625 
z
M 31.78125 74.21875 
Q 44.046875 74.21875 50.515625 64.515625 
Q 56.984375 54.828125 56.984375 36.375 
Q 56.984375 17.96875 50.515625 8.265625 
Q 44.046875 -1.421875 31.78125 -1.421875 
Q 19.53125 -1.421875 13.0625 8.265625 
Q 6.59375 17.96875 6.59375 36.375 
Q 6.59375 54.828125 13.0625 64.515625 
Q 19.53125 74.21875 31.78125 74.21875 
z
" id="DejaVuSans-48"/>
      </defs>
      <g transform="translate(66.036932 266.598437)scale(0.1 -0.1)">
       <use xlink:href="#DejaVuSans-48"/>
      </g>
     </g>
    </g>
    <g id="xtick_2">
     <g id="line2d_2">
      <g>
       <use style="stroke:#000000;stroke-width:0.8;" x="113.265018" xlink:href="#m0911abe14e" y="252"/>
      </g>
     </g>
     <g id="text_2">
      <!-- 100 -->
      <defs>
       <path d="M 12.40625 8.296875 
L 28.515625 8.296875 
L 28.515625 63.921875 
L 10.984375 60.40625 
L 10.984375 69.390625 
L 28.421875 72.90625 
L 38.28125 72.90625 
L 38.28125 8.296875 
L 54.390625 8.296875 
L 54.390625 0 
L 12.40625 0 
z
" id="DejaVuSans-49"/>
      </defs>
      <g transform="translate(103.721268 266.598437)scale(0.1 -0.1)">
       <use xlink:href="#DejaVuSans-49"/>
       <use x="63.623047" xlink:href="#DejaVuSans-48"/>
       <use x="127.246094" xlink:href="#DejaVuSans-48"/>
      </g>
     </g>
    </g>
    <g id="xtick_3">
     <g id="line2d_3">
      <g>
       <use style="stroke:#000000;stroke-width:0.8;" x="157.311854" xlink:href="#m0911abe14e" y="252"/>
      </g>
     </g>
     <g id="text_3">
      <!-- 200 -->
      <defs>
       <path d="M 19.1875 8.296875 
L 53.609375 8.296875 
L 53.609375 0 
L 7.328125 0 
L 7.328125 8.296875 
Q 12.9375 14.109375 22.625 23.890625 
Q 32.328125 33.6875 34.8125 36.53125 
Q 39.546875 41.84375 41.421875 45.53125 
Q 43.3125 49.21875 43.3125 52.78125 
Q 43.3125 58.59375 39.234375 62.25 
Q 35.15625 65.921875 28.609375 65.921875 
Q 23.96875 65.921875 18.8125 64.3125 
Q 13.671875 62.703125 7.8125 59.421875 
L 7.8125 69.390625 
Q 13.765625 71.78125 18.9375 73 
Q 24.125 74.21875 28.421875 74.21875 
Q 39.75 74.21875 46.484375 68.546875 
Q 53.21875 62.890625 53.21875 53.421875 
Q 53.21875 48.921875 51.53125 44.890625 
Q 49.859375 40.875 45.40625 35.40625 
Q 44.1875 33.984375 37.640625 27.21875 
Q 31.109375 20.453125 19.1875 8.296875 
z
" id="DejaVuSans-50"/>
      </defs>
      <g transform="translate(147.768104 266.598437)scale(0.1 -0.1)">
       <use xlink:href="#DejaVuSans-50"/>
       <use x="63.623047" xlink:href="#DejaVuSans-48"/>
       <use x="127.246094" xlink:href="#DejaVuSans-48"/>
      </g>
     </g>
    </g>
    <g id="xtick_4">
     <g id="line2d_4">
      <g>
       <use style="stroke:#000000;stroke-width:0.8;" x="201.35869" xlink:href="#m0911abe14e" y="252"/>
      </g>
     </g>
     <g id="text_4">
      <!-- 300 -->
      <defs>
       <path d="M 40.578125 39.3125 
Q 47.65625 37.796875 51.625 33 
Q 55.609375 28.21875 55.609375 21.1875 
Q 55.609375 10.40625 48.1875 4.484375 
Q 40.765625 -1.421875 27.09375 -1.421875 
Q 22.515625 -1.421875 17.65625 -0.515625 
Q 12.796875 0.390625 7.625 2.203125 
L 7.625 11.71875 
Q 11.71875 9.328125 16.59375 8.109375 
Q 21.484375 6.890625 26.8125 6.890625 
Q 36.078125 6.890625 40.9375 10.546875 
Q 45.796875 14.203125 45.796875 21.1875 
Q 45.796875 27.640625 41.28125 31.265625 
Q 36.765625 34.90625 28.71875 34.90625 
L 20.21875 34.90625 
L 20.21875 43.015625 
L 29.109375 43.015625 
Q 36.375 43.015625 40.234375 45.921875 
Q 44.09375 48.828125 44.09375 54.296875 
Q 44.09375 59.90625 40.109375 62.90625 
Q 36.140625 65.921875 28.71875 65.921875 
Q 24.65625 65.921875 20.015625 65.03125 
Q 15.375 64.15625 9.8125 62.3125 
L 9.8125 71.09375 
Q 15.4375 72.65625 20.34375 73.4375 
Q 25.25 74.21875 29.59375 74.21875 
Q 40.828125 74.21875 47.359375 69.109375 
Q 53.90625 64.015625 53.90625 55.328125 
Q 53.90625 49.265625 50.4375 45.09375 
Q 46.96875 40.921875 40.578125 39.3125 
z
" id="DejaVuSans-51"/>
      </defs>
      <g transform="translate(191.81494 266.598437)scale(0.1 -0.1)">
       <use xlink:href="#DejaVuSans-51"/>
       <use x="63.623047" xlink:href="#DejaVuSans-48"/>
       <use x="127.246094" xlink:href="#DejaVuSans-48"/>
      </g>
     </g>
    </g>
    <g id="xtick_5">
     <g id="line2d_5">
      <g>
       <use style="stroke:#000000;stroke-width:0.8;" x="245.405526" xlink:href="#m0911abe14e" y="252"/>
      </g>
     </g>
     <g id="text_5">
      <!-- 400 -->
      <defs>
       <path d="M 37.796875 64.3125 
L 12.890625 25.390625 
L 37.796875 25.390625 
z
M 35.203125 72.90625 
L 47.609375 72.90625 
L 47.609375 25.390625 
L 58.015625 25.390625 
L 58.015625 17.1875 
L 47.609375 17.1875 
L 47.609375 0 
L 37.796875 0 
L 37.796875 17.1875 
L 4.890625 17.1875 
L 4.890625 26.703125 
z
" id="DejaVuSans-52"/>
      </defs>
      <g transform="translate(235.861776 266.598437)scale(0.1 -0.1)">
       <use xlink:href="#DejaVuSans-52"/>
       <use x="63.623047" xlink:href="#DejaVuSans-48"/>
       <use x="127.246094" xlink:href="#DejaVuSans-48"/>
      </g>
     </g>
    </g>
    <g id="xtick_6">
     <g id="line2d_6">
      <g>
       <use style="stroke:#000000;stroke-width:0.8;" x="289.452362" xlink:href="#m0911abe14e" y="252"/>
      </g>
     </g>
     <g id="text_6">
      <!-- 500 -->
      <defs>
       <path d="M 10.796875 72.90625 
L 49.515625 72.90625 
L 49.515625 64.59375 
L 19.828125 64.59375 
L 19.828125 46.734375 
Q 21.96875 47.46875 24.109375 47.828125 
Q 26.265625 48.1875 28.421875 48.1875 
Q 40.625 48.1875 47.75 41.5 
Q 54.890625 34.8125 54.890625 23.390625 
Q 54.890625 11.625 47.5625 5.09375 
Q 40.234375 -1.421875 26.90625 -1.421875 
Q 22.3125 -1.421875 17.546875 -0.640625 
Q 12.796875 0.140625 7.71875 1.703125 
L 7.71875 11.625 
Q 12.109375 9.234375 16.796875 8.0625 
Q 21.484375 6.890625 26.703125 6.890625 
Q 35.15625 6.890625 40.078125 11.328125 
Q 45.015625 15.765625 45.015625 23.390625 
Q 45.015625 31 40.078125 35.4375 
Q 35.15625 39.890625 26.703125 39.890625 
Q 22.75 39.890625 18.8125 39.015625 
Q 14.890625 38.140625 10.796875 36.28125 
z
" id="DejaVuSans-53"/>
      </defs>
      <g transform="translate(279.908612 266.598437)scale(0.1 -0.1)">
       <use xlink:href="#DejaVuSans-53"/>
       <use x="63.623047" xlink:href="#DejaVuSans-48"/>
       <use x="127.246094" xlink:href="#DejaVuSans-48"/>
      </g>
     </g>
    </g>
    <g id="xtick_7">
     <g id="line2d_7">
      <g>
       <use style="stroke:#000000;stroke-width:0.8;" x="333.499197" xlink:href="#m0911abe14e" y="252"/>
      </g>
     </g>
     <g id="text_7">
      <!-- 600 -->
      <defs>
       <path d="M 33.015625 40.375 
Q 26.375 40.375 22.484375 35.828125 
Q 18.609375 31.296875 18.609375 23.390625 
Q 18.609375 15.53125 22.484375 10.953125 
Q 26.375 6.390625 33.015625 6.390625 
Q 39.65625 6.390625 43.53125 10.953125 
Q 47.40625 15.53125 47.40625 23.390625 
Q 47.40625 31.296875 43.53125 35.828125 
Q 39.65625 40.375 33.015625 40.375 
z
M 52.59375 71.296875 
L 52.59375 62.3125 
Q 48.875 64.0625 45.09375 64.984375 
Q 41.3125 65.921875 37.59375 65.921875 
Q 27.828125 65.921875 22.671875 59.328125 
Q 17.53125 52.734375 16.796875 39.40625 
Q 19.671875 43.65625 24.015625 45.921875 
Q 28.375 48.1875 33.59375 48.1875 
Q 44.578125 48.1875 50.953125 41.515625 
Q 57.328125 34.859375 57.328125 23.390625 
Q 57.328125 12.15625 50.6875 5.359375 
Q 44.046875 -1.421875 33.015625 -1.421875 
Q 20.359375 -1.421875 13.671875 8.265625 
Q 6.984375 17.96875 6.984375 36.375 
Q 6.984375 53.65625 15.1875 63.9375 
Q 23.390625 74.21875 37.203125 74.21875 
Q 40.921875 74.21875 44.703125 73.484375 
Q 48.484375 72.75 52.59375 71.296875 
z
" id="DejaVuSans-54"/>
      </defs>
      <g transform="translate(323.955447 266.598437)scale(0.1 -0.1)">
       <use xlink:href="#DejaVuSans-54"/>
       <use x="63.623047" xlink:href="#DejaVuSans-48"/>
       <use x="127.246094" xlink:href="#DejaVuSans-48"/>
      </g>
     </g>
    </g>
    <g id="xtick_8">
     <g id="line2d_8">
      <g>
       <use style="stroke:#000000;stroke-width:0.8;" x="377.546033" xlink:href="#m0911abe14e" y="252"/>
      </g>
     </g>
     <g id="text_8">
      <!-- 700 -->
      <defs>
       <path d="M 8.203125 72.90625 
L 55.078125 72.90625 
L 55.078125 68.703125 
L 28.609375 0 
L 18.3125 0 
L 43.21875 64.59375 
L 8.203125 64.59375 
z
" id="DejaVuSans-55"/>
      </defs>
      <g transform="translate(368.002283 266.598437)scale(0.1 -0.1)">
       <use xlink:href="#DejaVuSans-55"/>
       <use x="63.623047" xlink:href="#DejaVuSans-48"/>
       <use x="127.246094" xlink:href="#DejaVuSans-48"/>
      </g>
     </g>
    </g>
    <g id="text_9">
     <!-- Epoch -->
     <defs>
      <path d="M 9.8125 72.90625 
L 55.90625 72.90625 
L 55.90625 64.59375 
L 19.671875 64.59375 
L 19.671875 43.015625 
L 54.390625 43.015625 
L 54.390625 34.71875 
L 19.671875 34.71875 
L 19.671875 8.296875 
L 56.78125 8.296875 
L 56.78125 0 
L 9.8125 0 
z
" id="DejaVuSans-69"/>
      <path d="M 18.109375 8.203125 
L 18.109375 -20.796875 
L 9.078125 -20.796875 
L 9.078125 54.6875 
L 18.109375 54.6875 
L 18.109375 46.390625 
Q 20.953125 51.265625 25.265625 53.625 
Q 29.59375 56 35.59375 56 
Q 45.5625 56 51.78125 48.09375 
Q 58.015625 40.1875 58.015625 27.296875 
Q 58.015625 14.40625 51.78125 6.484375 
Q 45.5625 -1.421875 35.59375 -1.421875 
Q 29.59375 -1.421875 25.265625 0.953125 
Q 20.953125 3.328125 18.109375 8.203125 
z
M 48.6875 27.296875 
Q 48.6875 37.203125 44.609375 42.84375 
Q 40.53125 48.484375 33.40625 48.484375 
Q 26.265625 48.484375 22.1875 42.84375 
Q 18.109375 37.203125 18.109375 27.296875 
Q 18.109375 17.390625 22.1875 11.75 
Q 26.265625 6.109375 33.40625 6.109375 
Q 40.53125 6.109375 44.609375 11.75 
Q 48.6875 17.390625 48.6875 27.296875 
z
" id="DejaVuSans-112"/>
      <path d="M 30.609375 48.390625 
Q 23.390625 48.390625 19.1875 42.75 
Q 14.984375 37.109375 14.984375 27.296875 
Q 14.984375 17.484375 19.15625 11.84375 
Q 23.34375 6.203125 30.609375 6.203125 
Q 37.796875 6.203125 41.984375 11.859375 
Q 46.1875 17.53125 46.1875 27.296875 
Q 46.1875 37.015625 41.984375 42.703125 
Q 37.796875 48.390625 30.609375 48.390625 
z
M 30.609375 56 
Q 42.328125 56 49.015625 48.375 
Q 55.71875 40.765625 55.71875 27.296875 
Q 55.71875 13.875 49.015625 6.21875 
Q 42.328125 -1.421875 30.609375 -1.421875 
Q 18.84375 -1.421875 12.171875 6.21875 
Q 5.515625 13.875 5.515625 27.296875 
Q 5.515625 40.765625 12.171875 48.375 
Q 18.84375 56 30.609375 56 
z
" id="DejaVuSans-111"/>
      <path d="M 48.78125 52.59375 
L 48.78125 44.1875 
Q 44.96875 46.296875 41.140625 47.34375 
Q 37.3125 48.390625 33.40625 48.390625 
Q 24.65625 48.390625 19.8125 42.84375 
Q 14.984375 37.3125 14.984375 27.296875 
Q 14.984375 17.28125 19.8125 11.734375 
Q 24.65625 6.203125 33.40625 6.203125 
Q 37.3125 6.203125 41.140625 7.25 
Q 44.96875 8.296875 48.78125 10.40625 
L 48.78125 2.09375 
Q 45.015625 0.34375 40.984375 -0.53125 
Q 36.96875 -1.421875 32.421875 -1.421875 
Q 20.0625 -1.421875 12.78125 6.34375 
Q 5.515625 14.109375 5.515625 27.296875 
Q 5.515625 40.671875 12.859375 48.328125 
Q 20.21875 56 33.015625 56 
Q 37.15625 56 41.109375 55.140625 
Q 45.0625 54.296875 48.78125 52.59375 
z
" id="DejaVuSans-99"/>
      <path d="M 54.890625 33.015625 
L 54.890625 0 
L 45.90625 0 
L 45.90625 32.71875 
Q 45.90625 40.484375 42.875 44.328125 
Q 39.84375 48.1875 33.796875 48.1875 
Q 26.515625 48.1875 22.3125 43.546875 
Q 18.109375 38.921875 18.109375 30.90625 
L 18.109375 0 
L 9.078125 0 
L 9.078125 75.984375 
L 18.109375 75.984375 
L 18.109375 46.1875 
Q 21.34375 51.125 25.703125 53.5625 
Q 30.078125 56 35.796875 56 
Q 45.21875 56 50.046875 50.171875 
Q 54.890625 44.34375 54.890625 33.015625 
z
" id="DejaVuSans-104"/>
     </defs>
     <g transform="translate(206.089063 280.276563)scale(0.1 -0.1)">
      <use xlink:href="#DejaVuSans-69"/>
      <use x="63.183594" xlink:href="#DejaVuSans-112"/>
      <use x="126.660156" xlink:href="#DejaVuSans-111"/>
      <use x="187.841797" xlink:href="#DejaVuSans-99"/>
      <use x="242.822266" xlink:href="#DejaVuSans-104"/>
     </g>
    </g>
   </g>
   <g id="matplotlib.axis_2">
    <g id="ytick_1">
     <g id="line2d_9">
      <defs>
       <path d="M 0 0 
L -3.5 0 
" id="m066a61f0c1" style="stroke:#000000;stroke-width:0.8;"/>
      </defs>
      <g>
       <use style="stroke:#000000;stroke-width:0.8;" x="54" xlink:href="#m066a61f0c1" y="217.181071"/>
      </g>
     </g>
     <g id="text_10">
      <!-- 0.10 -->
      <defs>
       <path d="M 10.6875 12.40625 
L 21 12.40625 
L 21 0 
L 10.6875 0 
z
" id="DejaVuSans-46"/>
      </defs>
      <g transform="translate(24.734375 220.98029)scale(0.1 -0.1)">
       <use xlink:href="#DejaVuSans-48"/>
       <use x="63.623047" xlink:href="#DejaVuSans-46"/>
       <use x="95.410156" xlink:href="#DejaVuSans-49"/>
       <use x="159.033203" xlink:href="#DejaVuSans-48"/>
      </g>
     </g>
    </g>
    <g id="ytick_2">
     <g id="line2d_10">
      <g>
       <use style="stroke:#000000;stroke-width:0.8;" x="54" xlink:href="#m066a61f0c1" y="180.727016"/>
      </g>
     </g>
     <g id="text_11">
      <!-- 0.15 -->
      <g transform="translate(24.734375 184.526235)scale(0.1 -0.1)">
       <use xlink:href="#DejaVuSans-48"/>
       <use x="63.623047" xlink:href="#DejaVuSans-46"/>
       <use x="95.410156" xlink:href="#DejaVuSans-49"/>
       <use x="159.033203" xlink:href="#DejaVuSans-53"/>
      </g>
     </g>
    </g>
    <g id="ytick_3">
     <g id="line2d_11">
      <g>
       <use style="stroke:#000000;stroke-width:0.8;" x="54" xlink:href="#m066a61f0c1" y="144.272961"/>
      </g>
     </g>
     <g id="text_12">
      <!-- 0.20 -->
      <g transform="translate(24.734375 148.07218)scale(0.1 -0.1)">
       <use xlink:href="#DejaVuSans-48"/>
       <use x="63.623047" xlink:href="#DejaVuSans-46"/>
       <use x="95.410156" xlink:href="#DejaVuSans-50"/>
       <use x="159.033203" xlink:href="#DejaVuSans-48"/>
      </g>
     </g>
    </g>
    <g id="ytick_4">
     <g id="line2d_12">
      <g>
       <use style="stroke:#000000;stroke-width:0.8;" x="54" xlink:href="#m066a61f0c1" y="107.818906"/>
      </g>
     </g>
     <g id="text_13">
      <!-- 0.25 -->
      <g transform="translate(24.734375 111.618125)scale(0.1 -0.1)">
       <use xlink:href="#DejaVuSans-48"/>
       <use x="63.623047" xlink:href="#DejaVuSans-46"/>
       <use x="95.410156" xlink:href="#DejaVuSans-50"/>
       <use x="159.033203" xlink:href="#DejaVuSans-53"/>
      </g>
     </g>
    </g>
    <g id="ytick_5">
     <g id="line2d_13">
      <g>
       <use style="stroke:#000000;stroke-width:0.8;" x="54" xlink:href="#m066a61f0c1" y="71.364851"/>
      </g>
     </g>
     <g id="text_14">
      <!-- 0.30 -->
      <g transform="translate(24.734375 75.16407)scale(0.1 -0.1)">
       <use xlink:href="#DejaVuSans-48"/>
       <use x="63.623047" xlink:href="#DejaVuSans-46"/>
       <use x="95.410156" xlink:href="#DejaVuSans-51"/>
       <use x="159.033203" xlink:href="#DejaVuSans-48"/>
      </g>
     </g>
    </g>
    <g id="ytick_6">
     <g id="line2d_14">
      <g>
       <use style="stroke:#000000;stroke-width:0.8;" x="54" xlink:href="#m066a61f0c1" y="34.910796"/>
      </g>
     </g>
     <g id="text_15">
      <!-- 0.35 -->
      <g transform="translate(24.734375 38.710015)scale(0.1 -0.1)">
       <use xlink:href="#DejaVuSans-48"/>
       <use x="63.623047" xlink:href="#DejaVuSans-46"/>
       <use x="95.410156" xlink:href="#DejaVuSans-51"/>
       <use x="159.033203" xlink:href="#DejaVuSans-53"/>
      </g>
     </g>
    </g>
    <g id="text_16">
     <!-- MSE -->
     <defs>
      <path d="M 9.8125 72.90625 
L 24.515625 72.90625 
L 43.109375 23.296875 
L 61.8125 72.90625 
L 76.515625 72.90625 
L 76.515625 0 
L 66.890625 0 
L 66.890625 64.015625 
L 48.09375 14.015625 
L 38.1875 14.015625 
L 19.390625 64.015625 
L 19.390625 0 
L 9.8125 0 
z
" id="DejaVuSans-77"/>
      <path d="M 53.515625 70.515625 
L 53.515625 60.890625 
Q 47.90625 63.578125 42.921875 64.890625 
Q 37.9375 66.21875 33.296875 66.21875 
Q 25.25 66.21875 20.875 63.09375 
Q 16.5 59.96875 16.5 54.203125 
Q 16.5 49.359375 19.40625 46.890625 
Q 22.3125 44.4375 30.421875 42.921875 
L 36.375 41.703125 
Q 47.40625 39.59375 52.65625 34.296875 
Q 57.90625 29 57.90625 20.125 
Q 57.90625 9.515625 50.796875 4.046875 
Q 43.703125 -1.421875 29.984375 -1.421875 
Q 24.8125 -1.421875 18.96875 -0.25 
Q 13.140625 0.921875 6.890625 3.21875 
L 6.890625 13.375 
Q 12.890625 10.015625 18.65625 8.296875 
Q 24.421875 6.59375 29.984375 6.59375 
Q 38.421875 6.59375 43.015625 9.90625 
Q 47.609375 13.234375 47.609375 19.390625 
Q 47.609375 24.75 44.3125 27.78125 
Q 41.015625 30.8125 33.5 32.328125 
L 27.484375 33.5 
Q 16.453125 35.6875 11.515625 40.375 
Q 6.59375 45.0625 6.59375 53.421875 
Q 6.59375 63.09375 13.40625 68.65625 
Q 20.21875 74.21875 32.171875 74.21875 
Q 37.3125 74.21875 42.625 73.28125 
Q 47.953125 72.359375 53.515625 70.515625 
z
" id="DejaVuSans-83"/>
     </defs>
     <g transform="translate(18.654688 153.927656)rotate(-90)scale(0.1 -0.1)">
      <use xlink:href="#DejaVuSans-77"/>
      <use x="86.279297" xlink:href="#DejaVuSans-83"/>
      <use x="149.755859" xlink:href="#DejaVuSans-69"/>
     </g>
    </g>
   </g>
   <g id="line2d_15">
    <path clip-path="url(#p5cee78d8e2)" d="M 69.218182 44.443636 
L 69.65865 65.178629 
L 70.099119 113.075635 
L 70.539587 128.743353 
L 71.420524 141.401455 
L 72.30146 151.173772 
L 73.182397 158.583965 
L 74.063334 163.95978 
L 74.94427 168.185541 
L 76.265676 173.330286 
L 77.587081 177.672084 
L 78.908486 181.321423 
L 80.229891 184.28772 
L 81.551296 186.697332 
L 83.313169 189.368559 
L 85.955979 192.765465 
L 88.59879 195.74818 
L 91.2416 198.404999 
L 93.88441 200.756629 
L 98.729562 204.288732 
L 100.931904 205.669091 
L 104.455651 207.626261 
L 106.217524 208.537291 
L 116.348296 212.786138 
L 119.872043 214.017074 
L 122.514853 214.896532 
L 132.645626 217.905974 
L 136.169372 218.819597 
L 146.300145 221.223539 
L 163.478411 224.607517 
L 164.799816 224.83346 
L 168.323563 225.417039 
L 178.454335 227.030184 
L 185.06136 227.949751 
L 186.823234 228.232007 
L 188.144639 228.387993 
L 189.906512 228.647571 
L 192.549322 228.975404 
L 196.073069 229.439246 
L 198.275411 229.702999 
L 205.763373 230.580897 
L 207.525247 230.786762 
L 225.143981 232.632257 
L 233.072412 233.367766 
L 234.393817 233.502648 
L 237.917563 233.82451 
L 255.976766 235.337993 
L 257.73864 235.466141 
L 259.940981 235.636142 
L 282.404868 237.242633 
L 286.369083 237.491743 
L 288.130956 237.604514 
L 293.416577 237.96241 
L 303.106881 238.557371 
L 362.129641 241.629 
L 363.451046 241.664863 
L 373.581818 242.116364 
L 373.581818 242.116364 
" style="fill:none;stroke:#ff0000;stroke-linecap:square;stroke-width:1.5;"/>
   </g>
   <g id="line2d_16">
    <path clip-path="url(#p5cee78d8e2)" d="M 69.218182 51.911476 
L 70.099119 125.726004 
L 70.539587 133.855743 
L 71.420524 145.366846 
L 72.30146 154.51742 
L 73.182397 161.131737 
L 74.503802 168.09704 
L 76.265676 174.911237 
L 77.587081 179.148906 
L 78.908486 182.647327 
L 81.551296 187.86989 
L 84.194106 191.632198 
L 87.277385 195.350135 
L 88.158321 196.226792 
L 92.563005 200.505247 
L 94.324878 201.933892 
L 94.765347 202.330979 
L 96.086752 202.923571 
L 96.52722 203.500709 
L 96.967688 203.741174 
L 97.408157 204.128631 
L 97.848625 204.284784 
L 100.931904 206.275361 
L 101.372372 206.410465 
L 102.253309 206.94427 
L 103.134245 207.36346 
L 105.336587 208.488195 
L 106.657992 209.035907 
L 108.860334 209.985156 
L 109.300803 210.002988 
L 110.181739 210.415101 
L 112.384081 211.353587 
L 112.824549 211.425139 
L 113.705486 211.837151 
L 115.026891 212.174983 
L 115.907828 212.495364 
L 116.348296 212.546638 
L 116.788765 212.844167 
L 118.550638 213.320963 
L 118.991106 213.265052 
L 120.75298 214.060989 
L 121.193448 214.198806 
L 121.633917 214.142446 
L 122.074385 214.400999 
L 123.39579 214.756007 
L 123.836258 214.980932 
L 124.276727 214.959755 
L 124.717195 215.201835 
L 126.0386 215.408819 
L 126.479069 215.710818 
L 127.360005 215.800726 
L 129.121879 216.258718 
L 130.002815 216.517746 
L 130.443284 216.649083 
L 130.883752 216.622351 
L 131.32422 216.949286 
L 131.764689 216.958963 
L 133.967031 217.483668 
L 136.169372 217.924932 
L 136.609841 217.754914 
L 137.490778 218.328292 
L 137.931246 218.307002 
L 138.812183 218.561507 
L 139.252651 218.517739 
L 140.133588 218.895867 
L 141.014524 218.922003 
L 141.454993 219.194234 
L 141.895461 219.039421 
L 142.335929 219.160116 
L 142.776398 219.153301 
L 143.216866 219.379686 
L 143.657335 219.448672 
L 144.097803 219.665092 
L 145.419208 219.812138 
L 147.181081 220.210083 
L 147.62155 220.1724 
L 148.062018 220.359079 
L 148.502487 220.372911 
L 149.383423 220.662572 
L 149.823892 220.583755 
L 150.26436 220.787918 
L 152.026233 220.954512 
L 152.466702 220.766654 
L 152.90717 221.018753 
L 154.669044 221.462604 
L 155.109512 221.424043 
L 155.54998 221.614126 
L 155.990449 221.611667 
L 156.871385 221.852956 
L 157.311854 221.798553 
L 157.752322 221.869931 
L 158.19279 221.571906 
L 158.633259 222.088804 
L 159.954664 222.113875 
L 160.395132 222.365377 
L 161.716537 222.44658 
L 162.597474 222.603578 
L 163.037942 222.615707 
L 163.478411 222.778582 
L 164.799816 222.903164 
L 165.240284 222.682957 
L 167.002158 223.175468 
L 168.323563 223.401257 
L 170.525904 223.575116 
L 171.406841 223.802225 
L 171.84731 223.755394 
L 172.287778 223.860401 
L 173.168715 223.775077 
L 173.609183 224.083208 
L 174.49012 224.174979 
L 174.930588 224.024556 
L 175.371056 224.258212 
L 175.811525 224.250793 
L 176.692462 224.517234 
L 177.13293 224.446432 
L 178.454335 224.633446 
L 178.894803 224.460753 
L 179.335272 224.69892 
L 179.77574 224.57659 
L 181.097145 224.902111 
L 181.537613 224.878173 
L 181.978082 225.016775 
L 182.41855 224.861211 
L 182.859019 225.099144 
L 184.620892 225.267728 
L 185.501829 225.260229 
L 185.942297 225.407248 
L 186.382765 225.319491 
L 188.144639 225.70739 
L 188.585107 225.555091 
L 190.346981 225.701942 
L 190.787449 225.652726 
L 191.227917 225.799832 
L 191.668386 225.716109 
L 192.549322 226.076814 
L 193.430259 226.051783 
L 193.870728 226.201396 
L 194.311196 226.097856 
L 194.751664 226.229582 
L 195.632601 226.207661 
L 196.073069 226.30466 
L 196.954006 226.33611 
L 198.275411 226.533686 
L 198.715879 226.443865 
L 199.156348 225.871538 
L 199.596816 226.665264 
L 200.037285 226.548107 
L 200.477753 226.666698 
L 200.918221 226.590106 
L 202.680095 226.849222 
L 203.561031 226.779894 
L 204.0015 226.965701 
L 206.203842 227.112298 
L 206.64431 226.492705 
L 207.084778 227.05764 
L 207.525247 227.162794 
L 207.965715 227.054417 
L 210.168057 227.369819 
L 211.048994 227.378671 
L 213.251335 227.447322 
L 214.132272 227.698885 
L 214.57274 227.574591 
L 215.453677 227.754334 
L 215.894146 227.569766 
L 217.215551 227.717442 
L 218.096487 227.806546 
L 218.536956 227.925539 
L 218.977424 227.843002 
L 219.417892 228.05518 
L 219.858361 227.860889 
L 221.179766 228.134895 
L 221.620234 228.046093 
L 222.941639 228.295398 
L 223.822576 228.015346 
L 224.263044 228.289359 
L 225.143981 228.211333 
L 225.584449 228.408821 
L 226.024918 228.310744 
L 226.905854 228.419182 
L 227.346323 228.278932 
L 227.786791 228.555632 
L 228.22726 228.401758 
L 228.667728 228.622286 
L 230.87007 228.662214 
L 233.072412 228.700245 
L 233.953348 228.645587 
L 234.834285 228.868582 
L 235.274753 228.772119 
L 235.715222 228.902639 
L 236.15569 228.704963 
L 237.477095 228.926068 
L 238.358032 228.998056 
L 238.7985 228.987266 
L 239.238969 229.127275 
L 239.679437 228.859005 
L 240.560374 229.292261 
L 241.881779 229.080639 
L 242.762715 229.121753 
L 243.203184 228.697082 
L 243.643652 229.347341 
L 244.084121 229.356683 
L 244.965057 229.227946 
L 245.405526 229.404029 
L 246.286462 229.387778 
L 246.726931 229.262566 
L 247.167399 229.336096 
L 247.607867 229.540285 
L 248.048336 229.410034 
L 248.929272 229.640996 
L 249.369741 229.473015 
L 249.810209 229.566261 
L 250.250678 229.515798 
L 250.691146 229.59887 
L 251.131614 229.557147 
L 251.572083 229.784175 
L 252.012551 229.640092 
L 252.893488 229.651699 
L 253.333956 229.579831 
L 253.774424 229.766925 
L 254.214893 229.730114 
L 254.655361 229.965405 
L 255.095829 229.663333 
L 255.536298 229.745842 
L 255.976766 230.005052 
L 256.857703 229.680924 
L 257.298171 229.873205 
L 258.619576 229.943726 
L 259.940981 229.704266 
L 260.38145 229.819244 
L 260.821918 230.134526 
L 261.702855 230.01115 
L 262.583792 230.088473 
L 263.02426 230.116988 
L 263.464728 230.032233 
L 266.548007 230.191891 
L 266.988475 230.149276 
L 267.428944 230.22424 
L 267.869412 230.419483 
L 268.30988 230.203472 
L 268.750349 230.218992 
L 269.190817 230.443917 
L 270.071754 230.369777 
L 272.714564 230.58294 
L 273.155032 230.302675 
L 274.035969 230.575106 
L 276.238311 230.421326 
L 277.119247 230.666589 
L 277.559716 230.52595 
L 278.000184 230.673472 
L 278.881121 230.510034 
L 279.762058 230.819043 
L 281.523931 230.76988 
L 281.964399 230.562427 
L 282.404868 230.908951 
L 282.845336 230.744649 
L 283.285804 230.85046 
L 283.726273 230.600257 
L 284.166741 230.78126 
L 285.047678 230.817709 
L 285.488146 230.739938 
L 286.369083 230.938049 
L 286.809551 230.967965 
L 287.690488 230.831877 
L 288.130956 231.093827 
L 288.571425 230.988425 
L 289.011893 231.017825 
L 289.452362 230.916316 
L 289.89283 231.099235 
L 290.333298 231.123837 
L 290.773767 230.886662 
L 291.654703 231.105923 
L 292.095172 230.927287 
L 292.53564 231.161332 
L 293.857045 231.028212 
L 294.297513 231.198478 
L 294.737982 231.241549 
L 295.618919 231.012175 
L 296.059387 231.194156 
L 296.499855 231.101045 
L 296.940324 231.230619 
L 298.261729 231.233012 
L 299.142665 231.366728 
L 299.583134 231.163644 
L 300.023602 231.34155 
L 300.464071 231.0502 
L 301.345007 231.41524 
L 301.785476 231.235216 
L 302.225944 231.44198 
L 302.666412 231.183427 
L 303.106881 231.446148 
L 303.987817 231.414711 
L 304.428286 231.227751 
L 304.868754 231.510449 
L 305.749691 231.290035 
L 306.630628 231.456824 
L 307.071096 231.535795 
L 307.511564 231.215561 
L 308.392501 231.412446 
L 308.832969 231.147419 
L 309.273438 231.5009 
L 309.713906 231.585453 
L 310.154374 231.352889 
L 311.035311 231.609941 
L 311.47578 231.513143 
L 311.916248 231.242682 
L 312.797185 231.787197 
L 313.237653 231.337435 
L 313.678121 231.605015 
L 314.11859 231.554365 
L 314.559058 231.649601 
L 314.999526 231.450785 
L 315.439995 231.724068 
L 315.880463 231.459846 
L 317.201868 231.641874 
L 317.642337 231.538268 
L 318.523273 231.66356 
L 318.963742 231.504921 
L 319.40421 231.653072 
L 320.285147 231.631754 
L 321.166083 231.793805 
L 321.606552 231.450001 
L 322.04702 231.909313 
L 324.249362 231.308625 
L 325.130299 231.820537 
L 325.570767 231.398674 
L 326.011235 231.539306 
L 326.451704 231.867931 
L 327.773109 231.762937 
L 328.213577 231.529046 
L 328.654046 231.593341 
L 329.094514 231.873178 
L 329.975451 231.868306 
L 330.415919 231.836916 
L 331.296856 232.040804 
L 331.737324 231.841781 
L 332.177792 232.015847 
L 332.618261 231.860385 
L 333.939666 231.952632 
L 334.380134 231.668908 
L 334.820603 231.964426 
L 335.261071 231.94341 
L 335.701539 231.609532 
L 336.142008 231.965217 
L 336.582476 232.125626 
L 337.022944 232.089102 
L 337.463413 231.900493 
L 338.344349 232.121712 
L 340.106223 231.790816 
L 340.546691 232.067704 
L 341.427628 232.008871 
L 342.308565 232.087768 
L 343.189501 231.948249 
L 343.62997 232.125693 
L 344.510906 231.934142 
L 345.832312 232.03047 
L 346.27278 231.925504 
L 347.594185 232.135745 
L 348.034653 231.983633 
L 348.91559 231.833511 
L 349.356058 232.135792 
L 349.796527 232.026509 
L 350.236995 232.128454 
L 350.677463 231.862 
L 351.117932 232.164897 
L 351.5584 231.905902 
L 351.998869 231.940877 
L 352.439337 232.201816 
L 353.760742 232.006224 
L 354.20121 232.354892 
L 354.641679 231.785113 
L 355.082147 232.183058 
L 355.522615 232.140985 
L 355.963084 232.353023 
L 356.403552 231.870075 
L 356.844021 232.214495 
L 357.284489 232.396201 
L 357.724957 232.306052 
L 358.165426 231.892813 
L 358.605894 231.899548 
L 359.046362 232.268798 
L 359.486831 232.03754 
L 360.367767 232.12143 
L 360.808236 232.424066 
L 361.689172 232.008998 
L 362.129641 232.148109 
L 363.010578 232.023259 
L 363.891514 232.334647 
L 364.331983 231.991816 
L 364.772451 232.003007 
L 365.653388 232.36601 
L 366.093856 232.404216 
L 366.534324 232.182843 
L 366.974793 232.112129 
L 367.415261 232.279252 
L 367.85573 232.178394 
L 368.296198 232.45626 
L 368.736666 232.384239 
L 369.177135 232.448406 
L 369.617603 232.082943 
L 370.058071 232.358558 
L 370.939008 231.925309 
L 371.379476 232.355053 
L 372.260413 232.456589 
L 373.581818 232.240463 
L 373.581818 232.240463 
" style="fill:none;stroke:#0000ff;stroke-linecap:square;stroke-width:1.5;"/>
   </g>
   <g id="patch_3">
    <path d="M 54 252 
L 54 34.56 
" style="fill:none;stroke:#000000;stroke-linecap:square;stroke-linejoin:miter;stroke-width:0.8;"/>
   </g>
   <g id="patch_4">
    <path d="M 388.8 252 
L 388.8 34.56 
" style="fill:none;stroke:#000000;stroke-linecap:square;stroke-linejoin:miter;stroke-width:0.8;"/>
   </g>
   <g id="patch_5">
    <path d="M 54 252 
L 388.8 252 
" style="fill:none;stroke:#000000;stroke-linecap:square;stroke-linejoin:miter;stroke-width:0.8;"/>
   </g>
   <g id="patch_6">
    <path d="M 54 34.56 
L 388.8 34.56 
" style="fill:none;stroke:#000000;stroke-linecap:square;stroke-linejoin:miter;stroke-width:0.8;"/>
   </g>
   <g id="legend_1">
    <g id="patch_7">
     <path d="M 300.41875 71.91625 
L 381.8 71.91625 
Q 383.8 71.91625 383.8 69.91625 
L 383.8 41.56 
Q 383.8 39.56 381.8 39.56 
L 300.41875 39.56 
Q 298.41875 39.56 298.41875 41.56 
L 298.41875 69.91625 
Q 298.41875 71.91625 300.41875 71.91625 
z
" style="fill:#ffffff;opacity:0.8;stroke:#cccccc;stroke-linejoin:miter;"/>
    </g>
    <g id="line2d_17">
     <path d="M 302.41875 47.658437 
L 322.41875 47.658437 
" style="fill:none;stroke:#ff0000;stroke-linecap:square;stroke-width:1.5;"/>
    </g>
    <g id="line2d_18"/>
    <g id="text_17">
     <!-- Training -->
     <defs>
      <path d="M -0.296875 72.90625 
L 61.375 72.90625 
L 61.375 64.59375 
L 35.5 64.59375 
L 35.5 0 
L 25.59375 0 
L 25.59375 64.59375 
L -0.296875 64.59375 
z
" id="DejaVuSans-84"/>
      <path d="M 41.109375 46.296875 
Q 39.59375 47.171875 37.8125 47.578125 
Q 36.03125 48 33.890625 48 
Q 26.265625 48 22.1875 43.046875 
Q 18.109375 38.09375 18.109375 28.8125 
L 18.109375 0 
L 9.078125 0 
L 9.078125 54.6875 
L 18.109375 54.6875 
L 18.109375 46.1875 
Q 20.953125 51.171875 25.484375 53.578125 
Q 30.03125 56 36.53125 56 
Q 37.453125 56 38.578125 55.875 
Q 39.703125 55.765625 41.0625 55.515625 
z
" id="DejaVuSans-114"/>
      <path d="M 34.28125 27.484375 
Q 23.390625 27.484375 19.1875 25 
Q 14.984375 22.515625 14.984375 16.5 
Q 14.984375 11.71875 18.140625 8.90625 
Q 21.296875 6.109375 26.703125 6.109375 
Q 34.1875 6.109375 38.703125 11.40625 
Q 43.21875 16.703125 43.21875 25.484375 
L 43.21875 27.484375 
z
M 52.203125 31.203125 
L 52.203125 0 
L 43.21875 0 
L 43.21875 8.296875 
Q 40.140625 3.328125 35.546875 0.953125 
Q 30.953125 -1.421875 24.3125 -1.421875 
Q 15.921875 -1.421875 10.953125 3.296875 
Q 6 8.015625 6 15.921875 
Q 6 25.140625 12.171875 29.828125 
Q 18.359375 34.515625 30.609375 34.515625 
L 43.21875 34.515625 
L 43.21875 35.40625 
Q 43.21875 41.609375 39.140625 45 
Q 35.0625 48.390625 27.6875 48.390625 
Q 23 48.390625 18.546875 47.265625 
Q 14.109375 46.140625 10.015625 43.890625 
L 10.015625 52.203125 
Q 14.9375 54.109375 19.578125 55.046875 
Q 24.21875 56 28.609375 56 
Q 40.484375 56 46.34375 49.84375 
Q 52.203125 43.703125 52.203125 31.203125 
z
" id="DejaVuSans-97"/>
      <path d="M 9.421875 54.6875 
L 18.40625 54.6875 
L 18.40625 0 
L 9.421875 0 
z
M 9.421875 75.984375 
L 18.40625 75.984375 
L 18.40625 64.59375 
L 9.421875 64.59375 
z
" id="DejaVuSans-105"/>
      <path d="M 54.890625 33.015625 
L 54.890625 0 
L 45.90625 0 
L 45.90625 32.71875 
Q 45.90625 40.484375 42.875 44.328125 
Q 39.84375 48.1875 33.796875 48.1875 
Q 26.515625 48.1875 22.3125 43.546875 
Q 18.109375 38.921875 18.109375 30.90625 
L 18.109375 0 
L 9.078125 0 
L 9.078125 54.6875 
L 18.109375 54.6875 
L 18.109375 46.1875 
Q 21.34375 51.125 25.703125 53.5625 
Q 30.078125 56 35.796875 56 
Q 45.21875 56 50.046875 50.171875 
Q 54.890625 44.34375 54.890625 33.015625 
z
" id="DejaVuSans-110"/>
      <path d="M 45.40625 27.984375 
Q 45.40625 37.75 41.375 43.109375 
Q 37.359375 48.484375 30.078125 48.484375 
Q 22.859375 48.484375 18.828125 43.109375 
Q 14.796875 37.75 14.796875 27.984375 
Q 14.796875 18.265625 18.828125 12.890625 
Q 22.859375 7.515625 30.078125 7.515625 
Q 37.359375 7.515625 41.375 12.890625 
Q 45.40625 18.265625 45.40625 27.984375 
z
M 54.390625 6.78125 
Q 54.390625 -7.171875 48.1875 -13.984375 
Q 42 -20.796875 29.203125 -20.796875 
Q 24.46875 -20.796875 20.265625 -20.09375 
Q 16.0625 -19.390625 12.109375 -17.921875 
L 12.109375 -9.1875 
Q 16.0625 -11.328125 19.921875 -12.34375 
Q 23.78125 -13.375 27.78125 -13.375 
Q 36.625 -13.375 41.015625 -8.765625 
Q 45.40625 -4.15625 45.40625 5.171875 
L 45.40625 9.625 
Q 42.625 4.78125 38.28125 2.390625 
Q 33.9375 0 27.875 0 
Q 17.828125 0 11.671875 7.65625 
Q 5.515625 15.328125 5.515625 27.984375 
Q 5.515625 40.671875 11.671875 48.328125 
Q 17.828125 56 27.875 56 
Q 33.9375 56 38.28125 53.609375 
Q 42.625 51.21875 45.40625 46.390625 
L 45.40625 54.6875 
L 54.390625 54.6875 
z
" id="DejaVuSans-103"/>
     </defs>
     <g transform="translate(330.41875 51.158437)scale(0.1 -0.1)">
      <use xlink:href="#DejaVuSans-84"/>
      <use x="46.333984" xlink:href="#DejaVuSans-114"/>
      <use x="87.447266" xlink:href="#DejaVuSans-97"/>
      <use x="148.726562" xlink:href="#DejaVuSans-105"/>
      <use x="176.509766" xlink:href="#DejaVuSans-110"/>
      <use x="239.888672" xlink:href="#DejaVuSans-105"/>
      <use x="267.671875" xlink:href="#DejaVuSans-110"/>
      <use x="331.050781" xlink:href="#DejaVuSans-103"/>
     </g>
    </g>
    <g id="line2d_19">
     <path d="M 302.41875 62.336562 
L 322.41875 62.336562 
" style="fill:none;stroke:#0000ff;stroke-linecap:square;stroke-width:1.5;"/>
    </g>
    <g id="line2d_20"/>
    <g id="text_18">
     <!-- Validation -->
     <defs>
      <path d="M 28.609375 0 
L 0.78125 72.90625 
L 11.078125 72.90625 
L 34.1875 11.53125 
L 57.328125 72.90625 
L 67.578125 72.90625 
L 39.796875 0 
z
" id="DejaVuSans-86"/>
      <path d="M 9.421875 75.984375 
L 18.40625 75.984375 
L 18.40625 0 
L 9.421875 0 
z
" id="DejaVuSans-108"/>
      <path d="M 45.40625 46.390625 
L 45.40625 75.984375 
L 54.390625 75.984375 
L 54.390625 0 
L 45.40625 0 
L 45.40625 8.203125 
Q 42.578125 3.328125 38.25 0.953125 
Q 33.9375 -1.421875 27.875 -1.421875 
Q 17.96875 -1.421875 11.734375 6.484375 
Q 5.515625 14.40625 5.515625 27.296875 
Q 5.515625 40.1875 11.734375 48.09375 
Q 17.96875 56 27.875 56 
Q 33.9375 56 38.25 53.625 
Q 42.578125 51.265625 45.40625 46.390625 
z
M 14.796875 27.296875 
Q 14.796875 17.390625 18.875 11.75 
Q 22.953125 6.109375 30.078125 6.109375 
Q 37.203125 6.109375 41.296875 11.75 
Q 45.40625 17.390625 45.40625 27.296875 
Q 45.40625 37.203125 41.296875 42.84375 
Q 37.203125 48.484375 30.078125 48.484375 
Q 22.953125 48.484375 18.875 42.84375 
Q 14.796875 37.203125 14.796875 27.296875 
z
" id="DejaVuSans-100"/>
      <path d="M 18.3125 70.21875 
L 18.3125 54.6875 
L 36.8125 54.6875 
L 36.8125 47.703125 
L 18.3125 47.703125 
L 18.3125 18.015625 
Q 18.3125 11.328125 20.140625 9.421875 
Q 21.96875 7.515625 27.59375 7.515625 
L 36.8125 7.515625 
L 36.8125 0 
L 27.59375 0 
Q 17.1875 0 13.234375 3.875 
Q 9.28125 7.765625 9.28125 18.015625 
L 9.28125 47.703125 
L 2.6875 47.703125 
L 2.6875 54.6875 
L 9.28125 54.6875 
L 9.28125 70.21875 
z
" id="DejaVuSans-116"/>
     </defs>
     <g transform="translate(330.41875 65.836562)scale(0.1 -0.1)">
      <use xlink:href="#DejaVuSans-86"/>
      <use x="60.658203" xlink:href="#DejaVuSans-97"/>
      <use x="121.9375" xlink:href="#DejaVuSans-108"/>
      <use x="149.720703" xlink:href="#DejaVuSans-105"/>
      <use x="177.503906" xlink:href="#DejaVuSans-100"/>
      <use x="240.980469" xlink:href="#DejaVuSans-97"/>
      <use x="302.259766" xlink:href="#DejaVuSans-116"/>
      <use x="341.46875" xlink:href="#DejaVuSans-105"/>
      <use x="369.251953" xlink:href="#DejaVuSans-111"/>
      <use x="430.433594" xlink:href="#DejaVuSans-110"/>
     </g>
    </g>
   </g>
  </g>
 </g>
 <defs>
  <clipPath id="p5cee78d8e2">
   <rect height="217.44" width="334.8" x="54" y="34.56"/>
  </clipPath>
 </defs>
</svg>
