<?xml version="1.0" encoding="utf-8" standalone="no"?>
<!DOCTYPE svg PUBLIC "-//W3C//DTD SVG 1.1//EN"
  "http://www.w3.org/Graphics/SVG/1.1/DTD/svg11.dtd">
<!-- Created with matplotlib (https://matplotlib.org/) -->
<svg height="248.518125pt" version="1.1" viewBox="0 0 387.388762 248.518125" width="387.388762pt" xmlns="http://www.w3.org/2000/svg" xmlns:xlink="http://www.w3.org/1999/xlink">
 <defs>
  <style type="text/css">
*{stroke-linecap:butt;stroke-linejoin:round;}
  </style>
 </defs>
 <g id="figure_1">
  <g id="patch_1">
   <path d="M 0 248.518125 
L 387.388762 248.518125 
L 387.388762 0 
L 0 0 
z
" style="fill:#ffffff;"/>
  </g>
  <g id="axes_1">
   <g id="patch_2">
    <path d="M 42.828125 224.64 
L 377.628125 224.64 
L 377.628125 7.2 
L 42.828125 7.2 
z
" style="fill:#ffffff;"/>
   </g>
   <g id="matplotlib.axis_1">
    <g id="xtick_1">
     <g id="line2d_1">
      <defs>
       <path d="M 0 0 
L 0 3.5 
" id="mb71a893cc6" style="stroke:#000000;stroke-width:0.8;"/>
      </defs>
      <g>
       <use style="stroke:#000000;stroke-width:0.8;" x="58.046307" xlink:href="#mb71a893cc6" y="224.64"/>
      </g>
     </g>
     <g id="text_1">
      <!-- 0 -->
      <defs>
       <path d="M 31.78125 66.40625 
Q 24.171875 66.40625 20.328125 58.90625 
Q 16.5 51.421875 16.5 36.375 
Q 16.5 21.390625 20.328125 13.890625 
Q 24.171875 6.390625 31.78125 6.390625 
Q 39.453125 6.390625 43.28125 13.890625 
Q 47.125 21.390625 47.125 36.375 
Q 47.125 51.421875 43.28125 58.90625 
Q 39.453125 66.40625 31.78125 66.40625 
z
M 31.78125 74.21875 
Q 44.046875 74.21875 50.515625 64.515625 
Q 56.984375 54.828125 56.984375 36.375 
Q 56.984375 17.96875 50.515625 8.265625 
Q 44.046875 -1.421875 31.78125 -1.421875 
Q 19.53125 -1.421875 13.0625 8.265625 
Q 6.59375 17.96875 6.59375 36.375 
Q 6.59375 54.828125 13.0625 64.515625 
Q 19.53125 74.21875 31.78125 74.21875 
z
" id="DejaVuSans-48"/>
      </defs>
      <g transform="translate(54.865057 239.238437)scale(0.1 -0.1)">
       <use xlink:href="#DejaVuSans-48"/>
      </g>
     </g>
    </g>
    <g id="xtick_2">
     <g id="line2d_2">
      <g>
       <use style="stroke:#000000;stroke-width:0.8;" x="109.615883" xlink:href="#mb71a893cc6" y="224.64"/>
      </g>
     </g>
     <g id="text_2">
      <!-- 500 -->
      <defs>
       <path d="M 10.796875 72.90625 
L 49.515625 72.90625 
L 49.515625 64.59375 
L 19.828125 64.59375 
L 19.828125 46.734375 
Q 21.96875 47.46875 24.109375 47.828125 
Q 26.265625 48.1875 28.421875 48.1875 
Q 40.625 48.1875 47.75 41.5 
Q 54.890625 34.8125 54.890625 23.390625 
Q 54.890625 11.625 47.5625 5.09375 
Q 40.234375 -1.421875 26.90625 -1.421875 
Q 22.3125 -1.421875 17.546875 -0.640625 
Q 12.796875 0.140625 7.71875 1.703125 
L 7.71875 11.625 
Q 12.109375 9.234375 16.796875 8.0625 
Q 21.484375 6.890625 26.703125 6.890625 
Q 35.15625 6.890625 40.078125 11.328125 
Q 45.015625 15.765625 45.015625 23.390625 
Q 45.015625 31 40.078125 35.4375 
Q 35.15625 39.890625 26.703125 39.890625 
Q 22.75 39.890625 18.8125 39.015625 
Q 14.890625 38.140625 10.796875 36.28125 
z
" id="DejaVuSans-53"/>
      </defs>
      <g transform="translate(100.072133 239.238437)scale(0.1 -0.1)">
       <use xlink:href="#DejaVuSans-53"/>
       <use x="63.623047" xlink:href="#DejaVuSans-48"/>
       <use x="127.246094" xlink:href="#DejaVuSans-48"/>
      </g>
     </g>
    </g>
    <g id="xtick_3">
     <g id="line2d_3">
      <g>
       <use style="stroke:#000000;stroke-width:0.8;" x="161.185458" xlink:href="#mb71a893cc6" y="224.64"/>
      </g>
     </g>
     <g id="text_3">
      <!-- 1000 -->
      <defs>
       <path d="M 12.40625 8.296875 
L 28.515625 8.296875 
L 28.515625 63.921875 
L 10.984375 60.40625 
L 10.984375 69.390625 
L 28.421875 72.90625 
L 38.28125 72.90625 
L 38.28125 8.296875 
L 54.390625 8.296875 
L 54.390625 0 
L 12.40625 0 
z
" id="DejaVuSans-49"/>
      </defs>
      <g transform="translate(148.460458 239.238437)scale(0.1 -0.1)">
       <use xlink:href="#DejaVuSans-49"/>
       <use x="63.623047" xlink:href="#DejaVuSans-48"/>
       <use x="127.246094" xlink:href="#DejaVuSans-48"/>
       <use x="190.869141" xlink:href="#DejaVuSans-48"/>
      </g>
     </g>
    </g>
    <g id="xtick_4">
     <g id="line2d_4">
      <g>
       <use style="stroke:#000000;stroke-width:0.8;" x="212.755034" xlink:href="#mb71a893cc6" y="224.64"/>
      </g>
     </g>
     <g id="text_4">
      <!-- 1500 -->
      <g transform="translate(200.030034 239.238437)scale(0.1 -0.1)">
       <use xlink:href="#DejaVuSans-49"/>
       <use x="63.623047" xlink:href="#DejaVuSans-53"/>
       <use x="127.246094" xlink:href="#DejaVuSans-48"/>
       <use x="190.869141" xlink:href="#DejaVuSans-48"/>
      </g>
     </g>
    </g>
    <g id="xtick_5">
     <g id="line2d_5">
      <g>
       <use style="stroke:#000000;stroke-width:0.8;" x="264.32461" xlink:href="#mb71a893cc6" y="224.64"/>
      </g>
     </g>
     <g id="text_5">
      <!-- 2000 -->
      <defs>
       <path d="M 19.1875 8.296875 
L 53.609375 8.296875 
L 53.609375 0 
L 7.328125 0 
L 7.328125 8.296875 
Q 12.9375 14.109375 22.625 23.890625 
Q 32.328125 33.6875 34.8125 36.53125 
Q 39.546875 41.84375 41.421875 45.53125 
Q 43.3125 49.21875 43.3125 52.78125 
Q 43.3125 58.59375 39.234375 62.25 
Q 35.15625 65.921875 28.609375 65.921875 
Q 23.96875 65.921875 18.8125 64.3125 
Q 13.671875 62.703125 7.8125 59.421875 
L 7.8125 69.390625 
Q 13.765625 71.78125 18.9375 73 
Q 24.125 74.21875 28.421875 74.21875 
Q 39.75 74.21875 46.484375 68.546875 
Q 53.21875 62.890625 53.21875 53.421875 
Q 53.21875 48.921875 51.53125 44.890625 
Q 49.859375 40.875 45.40625 35.40625 
Q 44.1875 33.984375 37.640625 27.21875 
Q 31.109375 20.453125 19.1875 8.296875 
z
" id="DejaVuSans-50"/>
      </defs>
      <g transform="translate(251.59961 239.238437)scale(0.1 -0.1)">
       <use xlink:href="#DejaVuSans-50"/>
       <use x="63.623047" xlink:href="#DejaVuSans-48"/>
       <use x="127.246094" xlink:href="#DejaVuSans-48"/>
       <use x="190.869141" xlink:href="#DejaVuSans-48"/>
      </g>
     </g>
    </g>
    <g id="xtick_6">
     <g id="line2d_6">
      <g>
       <use style="stroke:#000000;stroke-width:0.8;" x="315.894186" xlink:href="#mb71a893cc6" y="224.64"/>
      </g>
     </g>
     <g id="text_6">
      <!-- 2500 -->
      <g transform="translate(303.169186 239.238437)scale(0.1 -0.1)">
       <use xlink:href="#DejaVuSans-50"/>
       <use x="63.623047" xlink:href="#DejaVuSans-53"/>
       <use x="127.246094" xlink:href="#DejaVuSans-48"/>
       <use x="190.869141" xlink:href="#DejaVuSans-48"/>
      </g>
     </g>
    </g>
    <g id="xtick_7">
     <g id="line2d_7">
      <g>
       <use style="stroke:#000000;stroke-width:0.8;" x="367.463762" xlink:href="#mb71a893cc6" y="224.64"/>
      </g>
     </g>
     <g id="text_7">
      <!-- 3000 -->
      <defs>
       <path d="M 40.578125 39.3125 
Q 47.65625 37.796875 51.625 33 
Q 55.609375 28.21875 55.609375 21.1875 
Q 55.609375 10.40625 48.1875 4.484375 
Q 40.765625 -1.421875 27.09375 -1.421875 
Q 22.515625 -1.421875 17.65625 -0.515625 
Q 12.796875 0.390625 7.625 2.203125 
L 7.625 11.71875 
Q 11.71875 9.328125 16.59375 8.109375 
Q 21.484375 6.890625 26.8125 6.890625 
Q 36.078125 6.890625 40.9375 10.546875 
Q 45.796875 14.203125 45.796875 21.1875 
Q 45.796875 27.640625 41.28125 31.265625 
Q 36.765625 34.90625 28.71875 34.90625 
L 20.21875 34.90625 
L 20.21875 43.015625 
L 29.109375 43.015625 
Q 36.375 43.015625 40.234375 45.921875 
Q 44.09375 48.828125 44.09375 54.296875 
Q 44.09375 59.90625 40.109375 62.90625 
Q 36.140625 65.921875 28.71875 65.921875 
Q 24.65625 65.921875 20.015625 65.03125 
Q 15.375 64.15625 9.8125 62.3125 
L 9.8125 71.09375 
Q 15.4375 72.65625 20.34375 73.4375 
Q 25.25 74.21875 29.59375 74.21875 
Q 40.828125 74.21875 47.359375 69.109375 
Q 53.90625 64.015625 53.90625 55.328125 
Q 53.90625 49.265625 50.4375 45.09375 
Q 46.96875 40.921875 40.578125 39.3125 
z
" id="DejaVuSans-51"/>
      </defs>
      <g transform="translate(354.738762 239.238437)scale(0.1 -0.1)">
       <use xlink:href="#DejaVuSans-51"/>
       <use x="63.623047" xlink:href="#DejaVuSans-48"/>
       <use x="127.246094" xlink:href="#DejaVuSans-48"/>
       <use x="190.869141" xlink:href="#DejaVuSans-48"/>
      </g>
     </g>
    </g>
   </g>
   <g id="matplotlib.axis_2">
    <g id="ytick_1">
     <g id="line2d_8">
      <defs>
       <path d="M 0 0 
L -3.5 0 
" id="mca4d627062" style="stroke:#000000;stroke-width:0.8;"/>
      </defs>
      <g>
       <use style="stroke:#000000;stroke-width:0.8;" x="42.828125" xlink:href="#mca4d627062" y="204.143904"/>
      </g>
     </g>
     <g id="text_8">
      <!-- 0.050 -->
      <defs>
       <path d="M 10.6875 12.40625 
L 21 12.40625 
L 21 0 
L 10.6875 0 
z
" id="DejaVuSans-46"/>
      </defs>
      <g transform="translate(7.2 207.943123)scale(0.1 -0.1)">
       <use xlink:href="#DejaVuSans-48"/>
       <use x="63.623047" xlink:href="#DejaVuSans-46"/>
       <use x="95.410156" xlink:href="#DejaVuSans-48"/>
       <use x="159.033203" xlink:href="#DejaVuSans-53"/>
       <use x="222.65625" xlink:href="#DejaVuSans-48"/>
      </g>
     </g>
    </g>
    <g id="ytick_2">
     <g id="line2d_9">
      <g>
       <use style="stroke:#000000;stroke-width:0.8;" x="42.828125" xlink:href="#mca4d627062" y="174.920615"/>
      </g>
     </g>
     <g id="text_9">
      <!-- 0.075 -->
      <defs>
       <path d="M 8.203125 72.90625 
L 55.078125 72.90625 
L 55.078125 68.703125 
L 28.609375 0 
L 18.3125 0 
L 43.21875 64.59375 
L 8.203125 64.59375 
z
" id="DejaVuSans-55"/>
      </defs>
      <g transform="translate(7.2 178.719834)scale(0.1 -0.1)">
       <use xlink:href="#DejaVuSans-48"/>
       <use x="63.623047" xlink:href="#DejaVuSans-46"/>
       <use x="95.410156" xlink:href="#DejaVuSans-48"/>
       <use x="159.033203" xlink:href="#DejaVuSans-55"/>
       <use x="222.65625" xlink:href="#DejaVuSans-53"/>
      </g>
     </g>
    </g>
    <g id="ytick_3">
     <g id="line2d_10">
      <g>
       <use style="stroke:#000000;stroke-width:0.8;" x="42.828125" xlink:href="#mca4d627062" y="145.697326"/>
      </g>
     </g>
     <g id="text_10">
      <!-- 0.100 -->
      <g transform="translate(7.2 149.496545)scale(0.1 -0.1)">
       <use xlink:href="#DejaVuSans-48"/>
       <use x="63.623047" xlink:href="#DejaVuSans-46"/>
       <use x="95.410156" xlink:href="#DejaVuSans-49"/>
       <use x="159.033203" xlink:href="#DejaVuSans-48"/>
       <use x="222.65625" xlink:href="#DejaVuSans-48"/>
      </g>
     </g>
    </g>
    <g id="ytick_4">
     <g id="line2d_11">
      <g>
       <use style="stroke:#000000;stroke-width:0.8;" x="42.828125" xlink:href="#mca4d627062" y="116.474038"/>
      </g>
     </g>
     <g id="text_11">
      <!-- 0.125 -->
      <g transform="translate(7.2 120.273256)scale(0.1 -0.1)">
       <use xlink:href="#DejaVuSans-48"/>
       <use x="63.623047" xlink:href="#DejaVuSans-46"/>
       <use x="95.410156" xlink:href="#DejaVuSans-49"/>
       <use x="159.033203" xlink:href="#DejaVuSans-50"/>
       <use x="222.65625" xlink:href="#DejaVuSans-53"/>
      </g>
     </g>
    </g>
    <g id="ytick_5">
     <g id="line2d_12">
      <g>
       <use style="stroke:#000000;stroke-width:0.8;" x="42.828125" xlink:href="#mca4d627062" y="87.250749"/>
      </g>
     </g>
     <g id="text_12">
      <!-- 0.150 -->
      <g transform="translate(7.2 91.049967)scale(0.1 -0.1)">
       <use xlink:href="#DejaVuSans-48"/>
       <use x="63.623047" xlink:href="#DejaVuSans-46"/>
       <use x="95.410156" xlink:href="#DejaVuSans-49"/>
       <use x="159.033203" xlink:href="#DejaVuSans-53"/>
       <use x="222.65625" xlink:href="#DejaVuSans-48"/>
      </g>
     </g>
    </g>
    <g id="ytick_6">
     <g id="line2d_13">
      <g>
       <use style="stroke:#000000;stroke-width:0.8;" x="42.828125" xlink:href="#mca4d627062" y="58.02746"/>
      </g>
     </g>
     <g id="text_13">
      <!-- 0.175 -->
      <g transform="translate(7.2 61.826679)scale(0.1 -0.1)">
       <use xlink:href="#DejaVuSans-48"/>
       <use x="63.623047" xlink:href="#DejaVuSans-46"/>
       <use x="95.410156" xlink:href="#DejaVuSans-49"/>
       <use x="159.033203" xlink:href="#DejaVuSans-55"/>
       <use x="222.65625" xlink:href="#DejaVuSans-53"/>
      </g>
     </g>
    </g>
    <g id="ytick_7">
     <g id="line2d_14">
      <g>
       <use style="stroke:#000000;stroke-width:0.8;" x="42.828125" xlink:href="#mca4d627062" y="28.804171"/>
      </g>
     </g>
     <g id="text_14">
      <!-- 0.200 -->
      <g transform="translate(7.2 32.60339)scale(0.1 -0.1)">
       <use xlink:href="#DejaVuSans-48"/>
       <use x="63.623047" xlink:href="#DejaVuSans-46"/>
       <use x="95.410156" xlink:href="#DejaVuSans-50"/>
       <use x="159.033203" xlink:href="#DejaVuSans-48"/>
       <use x="222.65625" xlink:href="#DejaVuSans-48"/>
      </g>
     </g>
    </g>
   </g>
   <g id="line2d_15">
    <path clip-path="url(#p91ddfc7981)" d="M 58.046307 17.083636 
L 58.252585 48.88399 
L 58.562003 50.94381 
L 58.768281 55.774396 
L 58.974559 75.633925 
L 59.283977 98.593208 
L 59.696533 107.536739 
L 60.315368 115.069143 
L 61.037342 121.007268 
L 61.862455 125.671571 
L 63.409543 132.325553 
L 65.162908 139.170767 
L 66.503717 143.547083 
L 67.844526 147.202224 
L 70.113588 152.341179 
L 72.382649 156.585004 
L 73.826597 158.924129 
L 77.849024 164.248535 
L 78.261581 164.707403 
L 79.086694 165.612268 
L 80.324364 166.913961 
L 81.458894 168.045515 
L 82.077729 168.620252 
L 83.005982 169.506991 
L 83.521677 169.925685 
L 87.750382 173.303272 
L 88.369217 173.750085 
L 92.082227 176.170536 
L 97.548602 179.265482 
L 97.858019 179.415632 
L 99.508246 180.243194 
L 100.436498 180.690759 
L 103.427534 182.075718 
L 104.046368 182.327957 
L 105.284038 182.871203 
L 105.696595 183.029551 
L 106.521708 183.394549 
L 108.481352 184.15845 
L 109.100187 184.402057 
L 109.719022 184.63299 
L 111.266109 185.22624 
L 112.40064 185.623784 
L 113.019475 185.865349 
L 118.898406 187.837068 
L 119.310963 187.944288 
L 120.548633 188.345635 
L 120.85805 188.425784 
L 121.580024 188.659312 
L 122.714555 188.987715 
L 125.086755 189.676694 
L 125.499312 189.770166 
L 126.530703 190.058916 
L 127.046399 190.191171 
L 129.109182 190.745376 
L 130.965687 191.214037 
L 132.100218 191.485515 
L 132.822192 191.673867 
L 134.369279 192.036239 
L 135.400671 192.26837 
L 135.813227 192.377336 
L 137.257175 192.691174 
L 137.772871 192.839868 
L 138.804263 193.058423 
L 139.526237 193.202814 
L 139.938793 193.312242 
L 140.763906 193.484101 
L 143.651803 194.094044 
L 144.270638 194.219148 
L 162.732546 197.609247 
L 163.557659 197.733449 
L 166.342416 198.182739 
L 167.992642 198.432335 
L 168.405199 198.49439 
L 172.943322 199.192502 
L 173.665296 199.306255 
L 176.037496 199.641921 
L 176.656331 199.753025 
L 176.965749 199.766359 
L 190.064421 201.51478 
L 190.580117 201.605641 
L 192.436621 201.831653 
L 193.674291 201.963086 
L 193.983709 202.02087 
L 196.459048 202.307777 
L 197.284161 202.405139 
L 198.315553 202.544523 
L 198.831249 202.574774 
L 199.86264 202.696859 
L 200.584614 202.796628 
L 201.203449 202.850931 
L 201.512867 202.914963 
L 203.369371 203.111997 
L 203.57565 203.138456 
L 204.091345 203.186119 
L 205.535294 203.351193 
L 206.566685 203.465972 
L 207.288659 203.548189 
L 213.580147 204.195345 
L 214.198982 204.268521 
L 214.611539 204.327262 
L 215.333513 204.399282 
L 216.468044 204.499658 
L 217.086879 204.588967 
L 217.808853 204.660381 
L 219.665357 204.825955 
L 221.418723 205.033728 
L 222.346975 205.123187 
L 232.042056 206.057293 
L 232.351473 206.066463 
L 233.073447 206.134766 
L 233.89856 206.187947 
L 234.311117 206.269482 
L 234.929952 206.317365 
L 235.651926 206.375649 
L 236.992735 206.507936 
L 237.817848 206.546359 
L 238.539822 206.636855 
L 246.584676 207.328499 
L 246.997233 207.391446 
L 247.409789 207.378756 
L 247.822346 207.455521 
L 248.647459 207.531818 
L 248.956876 207.543218 
L 252.463608 207.826622 
L 252.773025 207.849857 
L 258.961374 208.368089 
L 259.270792 208.356265 
L 261.024157 208.558451 
L 261.230435 208.535823 
L 262.158688 208.591249 
L 262.571244 208.644553 
L 262.983801 208.643677 
L 263.190079 208.670791 
L 265.768558 208.888046 
L 266.077976 208.914966 
L 267.109367 208.972047 
L 270.40982 209.198021 
L 270.822377 209.267512 
L 271.338072 209.284542 
L 272.575742 209.384182 
L 272.88516 209.40984 
L 274.432247 209.515604 
L 276.082473 209.642777 
L 277.010726 209.7188 
L 277.526421 209.739897 
L 280.930013 209.966231 
L 281.033153 210.032702 
L 281.239431 209.997353 
L 319.297778 212.445707 
L 319.504056 212.417185 
L 319.710334 212.508079 
L 319.916613 212.472719 
L 320.638587 212.501192 
L 320.948004 212.529654 
L 321.257422 212.535934 
L 321.669978 212.570011 
L 323.526483 212.679326 
L 323.93904 212.699767 
L 326.414379 212.819247 
L 326.723797 212.883897 
L 326.930075 212.893852 
L 327.961467 212.93286 
L 328.992858 212.962918 
L 329.302276 213.006412 
L 329.714832 213.037415 
L 330.333667 213.086029 
L 330.849363 213.040059 
L 331.15878 213.088946 
L 331.983893 213.186948 
L 332.39645 213.182021 
L 335.800042 213.36953 
L 336.10946 213.392728 
L 336.728294 213.412648 
L 339.616191 213.581005 
L 340.235026 213.607017 
L 349.104993 214.09294 
L 349.517549 214.083528 
L 352.818002 214.268716 
L 353.02428 214.280761 
L 353.230559 214.312677 
L 353.643115 214.301976 
L 354.158811 214.362473 
L 354.571368 214.345894 
L 355.190203 214.399972 
L 356.015316 214.421364 
L 356.73729 214.487873 
L 357.046707 214.464213 
L 357.871821 214.539393 
L 358.800073 214.546565 
L 359.10949 214.602792 
L 359.418908 214.609464 
L 362.203665 214.756364 
L 362.409943 214.75595 
L 362.409943 214.75595 
" style="fill:none;stroke:#ff0000;stroke-linecap:square;stroke-width:1.5;"/>
   </g>
   <g id="line2d_16">
    <path clip-path="url(#p91ddfc7981)" d="M 58.046307 46.34954 
L 58.458863 48.616837 
L 58.665142 51.898508 
L 58.768281 56.683279 
L 59.283977 98.175459 
L 59.696533 106.289252 
L 60.315368 113.707323 
L 61.037342 119.536391 
L 62.687569 127.627351 
L 65.266047 137.721819 
L 67.638248 144.951667 
L 69.80417 150.135706 
L 70.113588 150.74647 
L 71.351257 153.308308 
L 72.073231 154.651315 
L 73.51718 157.147826 
L 73.826597 157.607339 
L 74.445432 158.51576 
L 75.167406 159.545906 
L 75.88938 160.468628 
L 76.301937 161.083862 
L 76.405076 161.126475 
L 76.817632 161.710195 
L 77.539606 162.456771 
L 77.849024 162.846057 
L 78.158441 163.252073 
L 78.261581 163.251976 
L 78.570998 163.727165 
L 79.086694 164.25583 
L 79.705529 164.939797 
L 80.014946 165.18501 
L 80.427503 165.696817 
L 80.943198 166.172253 
L 81.562033 166.717185 
L 82.593425 167.669842 
L 82.902842 167.88455 
L 83.934234 168.795088 
L 84.34679 169.115437 
L 84.862486 169.528867 
L 85.58446 169.97525 
L 85.893878 170.30528 
L 88.266078 171.938014 
L 88.369217 171.854324 
L 88.575496 172.157128 
L 88.678635 172.043891 
L 88.884913 172.37636 
L 89.503748 172.796242 
L 89.606887 172.782489 
L 89.916305 172.986619 
L 90.638279 173.330639 
L 90.844557 173.574105 
L 90.947696 173.536311 
L 91.153974 173.776184 
L 91.566531 174.009115 
L 96.207793 176.420094 
L 96.310932 176.241584 
L 96.51721 176.533541 
L 96.723489 176.671044 
L 96.826628 176.658591 
L 97.032906 176.779495 
L 98.270576 177.300472 
L 98.373715 177.18009 
L 98.579993 177.559755 
L 98.683133 177.487621 
L 98.889411 177.629229 
L 99.301967 177.850121 
L 99.405107 177.668441 
L 99.611385 177.968139 
L 102.911838 179.291698 
L 103.118116 179.390742 
L 103.324394 179.315524 
L 103.530673 179.560259 
L 104.046368 179.816184 
L 104.252647 179.61851 
L 104.458925 179.905546 
L 106.006012 180.485371 
L 106.109151 180.276024 
L 106.418569 180.66342 
L 106.521708 180.584119 
L 107.140543 180.967475 
L 107.44996 180.895561 
L 107.656239 181.1247 
L 107.965656 181.147103 
L 108.275074 181.302807 
L 108.378213 181.279255 
L 108.481352 181.10919 
L 108.68763 181.463385 
L 109.100187 181.664325 
L 109.203326 181.501593 
L 109.409604 181.709865 
L 110.028439 181.830425 
L 110.131578 181.660521 
L 110.234718 181.761251 
L 110.337857 182.03895 
L 110.544135 181.912793 
L 110.647274 182.134566 
L 110.750413 182.04118 
L 110.956692 182.238149 
L 111.059831 182.196632 
L 111.16297 182.32865 
L 111.266109 182.214575 
L 111.988083 182.499355 
L 112.194361 182.492929 
L 112.40064 182.646077 
L 112.916335 182.850799 
L 113.019475 182.795701 
L 113.328892 182.942144 
L 113.432031 182.952974 
L 113.53517 182.61711 
L 113.741449 183.072723 
L 114.669701 183.389682 
L 114.77284 183.212166 
L 114.875979 183.418375 
L 114.979118 183.235761 
L 115.082258 183.43547 
L 115.185397 183.357072 
L 115.391675 183.508382 
L 115.701093 183.669556 
L 116.01051 183.44853 
L 116.216788 183.797476 
L 116.423067 183.886199 
L 116.526206 183.733449 
L 117.145041 184.106645 
L 117.351319 184.103476 
L 117.454458 184.190324 
L 117.557597 184.058225 
L 117.660736 184.250413 
L 117.970154 184.07677 
L 118.073293 184.333297 
L 118.176432 184.258874 
L 118.279571 183.919566 
L 118.382711 184.362683 
L 118.48585 184.181116 
L 118.692128 184.432168 
L 119.62038 184.751088 
L 119.723519 184.653243 
L 119.826659 184.784563 
L 120.032937 184.594282 
L 120.239215 184.915545 
L 120.342354 184.927101 
L 120.445494 184.746114 
L 120.651772 185.016909 
L 120.754911 185.025279 
L 120.85805 184.772664 
L 120.961189 185.030356 
L 121.064328 184.958389 
L 121.270607 185.112568 
L 121.992581 185.067554 
L 122.198859 185.361767 
L 122.508277 185.400012 
L 122.611416 185.029518 
L 122.714555 185.504745 
L 122.817694 185.284277 
L 122.920833 185.529242 
L 123.023972 185.42956 
L 123.127111 185.552144 
L 123.230251 185.412889 
L 123.33339 185.603836 
L 123.436529 185.54689 
L 123.539668 185.630886 
L 123.642807 185.563931 
L 123.849086 185.73218 
L 124.055364 185.812786 
L 124.158503 185.666219 
L 124.364781 185.854878 
L 124.57106 185.807919 
L 124.674199 185.985376 
L 124.880477 185.852079 
L 125.086755 185.999645 
L 125.396173 186.075228 
L 125.499312 185.702402 
L 125.70559 186.085822 
L 125.808729 186.168318 
L 125.911869 186.071972 
L 126.118147 186.260534 
L 126.221286 186.214692 
L 126.324425 186.322299 
L 126.427564 186.217985 
L 126.633843 186.371579 
L 126.736982 186.246303 
L 126.94326 186.386148 
L 127.149538 186.468892 
L 127.665234 186.451169 
L 127.768373 186.428853 
L 127.871512 186.561554 
L 127.974652 186.463456 
L 128.18093 186.600261 
L 128.490347 186.798428 
L 128.799765 186.589876 
L 129.006043 186.790402 
L 129.212321 186.813261 
L 129.315461 186.816458 
L 129.521739 186.930979 
L 129.624878 186.57802 
L 129.831156 187.017112 
L 129.934295 186.885164 
L 130.140574 187.024242 
L 130.243713 186.966575 
L 130.346852 187.087275 
L 130.55313 187.042738 
L 131.068826 187.17689 
L 131.7908 187.381138 
L 131.997079 187.387913 
L 132.203357 187.451585 
L 132.306496 187.533163 
L 132.409635 187.098304 
L 132.615913 187.379264 
L 132.925331 187.42842 
L 133.131609 187.587826 
L 133.234748 187.492259 
L 133.647305 187.747727 
L 133.956722 187.583733 
L 134.163001 187.772171 
L 134.26614 187.642221 
L 134.369279 187.838336 
L 134.575557 187.69632 
L 134.781836 187.772117 
L 134.884975 187.849134 
L 134.988114 187.731111 
L 135.091253 187.975222 
L 135.297531 187.948693 
L 135.606949 188.064482 
L 135.710088 188.065911 
L 135.813227 187.92015 
L 135.916366 188.124851 
L 136.019505 188.070569 
L 136.122645 187.704926 
L 136.328923 188.069607 
L 136.535201 188.1786 
L 136.63834 188.065224 
L 136.844619 188.250138 
L 136.947758 187.841027 
L 137.154036 188.300229 
L 137.463454 188.332463 
L 137.669732 188.377085 
L 137.772871 188.335116 
L 137.979149 188.400814 
L 138.082288 188.451641 
L 138.288567 188.388909 
L 138.907402 188.56765 
L 139.11368 188.328079 
L 139.216819 188.666205 
L 139.319958 188.483966 
L 139.526237 188.692529 
L 139.732515 188.683702 
L 139.835654 188.555864 
L 139.938793 188.669815 
L 140.041932 188.374393 
L 140.248211 188.701968 
L 140.35135 188.880065 
L 140.454489 188.762863 
L 140.557628 188.913067 
L 140.660767 188.764749 
L 140.867046 188.897433 
L 140.970185 188.903714 
L 141.073324 188.778786 
L 141.279602 188.945805 
L 141.382741 188.749443 
L 141.58902 189.029855 
L 142.207855 189.131305 
L 142.929829 189.170963 
L 143.136107 189.245342 
L 143.342385 189.321221 
L 143.445524 189.105384 
L 143.548663 189.260815 
L 143.651803 188.527493 
L 143.858081 189.32864 
L 144.064359 189.285484 
L 144.167498 189.415617 
L 144.270638 189.317911 
L 144.373777 189.06363 
L 144.580055 189.434828 
L 144.683194 189.415155 
L 144.786333 189.142549 
L 144.889472 189.406425 
L 144.992612 189.365483 
L 145.611447 189.585021 
L 145.817725 189.60354 
L 146.024003 189.679031 
L 146.230281 189.517357 
L 146.333421 189.629579 
L 146.43656 189.249168 
L 146.539699 189.651224 
L 146.642838 189.578241 
L 146.849116 189.783226 
L 147.055395 189.790388 
L 147.158534 189.870542 
L 147.261673 189.793643 
L 147.467951 189.849628 
L 147.67423 189.69684 
L 147.880508 189.983553 
L 147.983647 189.84042 
L 148.086786 189.965105 
L 148.189925 189.850804 
L 148.396204 189.992627 
L 148.499343 189.79049 
L 148.602482 189.991322 
L 148.705621 189.830416 
L 149.015039 190.047236 
L 149.118178 190.032135 
L 149.221317 190.146119 
L 149.324456 189.989565 
L 149.427595 190.135643 
L 149.530734 189.832157 
L 149.737013 190.145845 
L 149.943291 190.176563 
L 150.04643 189.979213 
L 150.149569 190.288516 
L 150.252708 190.173711 
L 150.458987 190.283074 
L 150.562126 189.979932 
L 150.665265 190.378293 
L 150.768404 190.287361 
L 150.871543 190.355117 
L 151.077822 190.235836 
L 151.180961 190.410854 
L 151.2841 190.365217 
L 151.387239 190.153753 
L 151.490378 190.268779 
L 151.593517 190.00161 
L 151.696656 190.35343 
L 151.799796 190.314432 
L 152.006074 190.397466 
L 152.418631 190.325 
L 152.624909 190.447353 
L 152.728048 190.396188 
L 152.934326 190.586941 
L 153.140605 190.439274 
L 153.346883 190.646053 
L 153.450022 190.651248 
L 153.553161 190.425435 
L 153.75944 190.675283 
L 153.862579 190.531322 
L 153.965718 190.652188 
L 154.068857 190.510043 
L 154.171996 190.566715 
L 154.275135 190.76738 
L 154.378274 190.68858 
L 154.481414 190.023308 
L 154.584553 190.686581 
L 154.687692 190.59002 
L 154.89397 190.813706 
L 154.997109 190.60077 
L 155.100248 190.758339 
L 155.203388 190.606754 
L 155.409666 190.766757 
L 155.719083 190.862378 
L 155.822223 190.66145 
L 156.028501 191.006313 
L 156.234779 190.866402 
L 156.441057 190.967084 
L 156.647336 190.972365 
L 156.750475 190.86117 
L 156.956753 191.002112 
L 157.266171 190.88073 
L 157.36931 191.071672 
L 157.575588 190.651301 
L 157.678727 191.096159 
L 157.781866 190.98297 
L 157.988145 191.104142 
L 158.194423 191.104588 
L 158.50384 191.21948 
L 158.60698 190.950033 
L 158.813258 191.14171 
L 159.122675 191.151837 
L 159.225815 190.965876 
L 159.432093 191.260873 
L 159.638371 191.2161 
L 159.74151 191.36328 
L 159.947789 191.258284 
L 160.050928 191.243972 
L 160.154067 191.410067 
L 160.566624 191.332636 
L 160.669763 191.395556 
L 160.772902 191.291602 
L 160.876041 191.553888 
L 160.97918 191.373326 
L 161.082319 191.487793 
L 161.185458 191.140695 
L 161.288598 191.379912 
L 161.391737 191.214177 
L 161.701154 191.516723 
L 161.907432 191.232969 
L 162.010572 191.589544 
L 162.113711 191.414273 
L 162.319989 191.585939 
L 162.423128 191.544374 
L 162.526267 191.625452 
L 162.732546 191.486955 
L 162.835685 191.711232 
L 163.041963 191.608476 
L 163.248241 191.509733 
L 163.557659 191.663467 
L 163.660798 191.382765 
L 163.763937 191.739608 
L 163.867076 191.670488 
L 163.970216 191.437573 
L 164.176494 191.794953 
L 164.279633 191.757707 
L 164.382772 191.595126 
L 164.58905 191.841816 
L 164.69219 191.724823 
L 164.898468 191.842326 
L 165.104746 191.823249 
L 165.207885 191.894179 
L 165.620442 191.562247 
L 165.723581 191.76727 
L 165.82672 191.294756 
L 165.929859 191.93632 
L 166.032999 191.730857 
L 166.136138 192.04174 
L 166.239277 191.826951 
L 166.342416 191.879943 
L 166.445555 191.46538 
L 166.548694 191.988291 
L 166.651833 191.883574 
L 166.754973 191.960377 
L 166.961251 191.913917 
L 167.06439 191.946366 
L 167.373808 191.587116 
L 167.476947 191.884681 
L 167.580086 191.818215 
L 167.683225 192.145425 
L 167.889503 192.019789 
L 168.30206 192.164889 
L 168.508338 192.168526 
L 168.611477 191.703931 
L 168.817756 192.229824 
L 168.920895 192.130882 
L 169.024034 192.336947 
L 169.230312 192.037979 
L 169.436591 192.245349 
L 169.642869 192.214249 
L 170.055425 192.277836 
L 170.158565 191.914046 
L 170.467982 192.342513 
L 170.67426 192.359876 
L 170.7774 192.1665 
L 171.189956 192.490068 
L 171.396234 192.303913 
L 171.499374 192.463437 
L 171.705652 192.273366 
L 171.808791 192.253505 
L 171.91193 191.976048 
L 172.015069 192.402145 
L 172.221348 192.346859 
L 172.324487 192.381247 
L 172.427626 192.56297 
L 172.633904 192.356212 
L 172.737043 191.783988 
L 172.943322 192.585496 
L 173.046461 192.389219 
L 173.1496 192.561831 
L 173.252739 192.358307 
L 173.459017 192.604256 
L 173.562157 192.277605 
L 173.665296 192.577722 
L 173.768435 192.472844 
L 173.871574 192.69184 
L 173.974713 192.606974 
L 174.077852 192.323753 
L 174.180992 192.662174 
L 174.490409 192.547009 
L 174.593548 192.630956 
L 174.902966 192.556292 
L 175.006105 192.612062 
L 175.109244 192.494328 
L 175.315522 192.728957 
L 175.5218 192.803191 
L 175.934357 192.71255 
L 176.037496 192.810353 
L 176.243775 192.652117 
L 176.450053 192.792055 
L 176.656331 192.080544 
L 176.75947 192.852391 
L 176.862609 192.562851 
L 177.068888 192.818051 
L 177.481444 193.026297 
L 177.584584 192.691308 
L 177.687723 192.930874 
L 177.99714 192.811422 
L 178.203418 192.882255 
L 178.306558 192.89921 
L 178.512836 192.781009 
L 178.615975 193.012984 
L 178.719114 192.562277 
L 178.925392 192.96898 
L 179.028532 192.283143 
L 179.23481 193.109782 
L 179.337949 193.023788 
L 179.441088 193.116041 
L 179.544227 192.793779 
L 179.647367 193.099978 
L 179.750506 192.598061 
L 179.853645 192.93348 
L 179.956784 192.844424 
L 180.266201 193.146233 
L 180.369341 192.816273 
L 180.575619 193.137664 
L 180.678758 192.819389 
L 181.091315 193.219436 
L 181.297593 192.906731 
L 181.400732 193.22613 
L 181.503871 193.019667 
L 181.60701 193.240995 
L 181.71015 192.980127 
L 182.019567 193.252255 
L 182.122706 193.089733 
L 182.225845 193.23861 
L 182.328984 193.151912 
L 182.535263 193.328606 
L 182.741541 193.029918 
L 182.84468 193.191317 
L 183.050959 193.338867 
L 183.154098 193.050644 
L 183.463515 193.353356 
L 183.566654 193.418893 
L 183.669793 193.29208 
L 183.876072 193.380158 
L 184.185489 193.109347 
L 184.391768 193.417388 
L 184.598046 193.359335 
L 184.701185 193.467823 
L 184.804324 193.303201 
L 185.113742 193.462097 
L 185.32002 193.350181 
L 185.526298 193.467603 
L 185.629437 193.100499 
L 185.732576 193.364837 
L 185.835716 192.502773 
L 186.041994 193.493954 
L 186.248272 193.53596 
L 186.351411 193.196093 
L 186.55769 193.599004 
L 186.867107 193.304565 
L 186.970246 193.058794 
L 187.176525 193.526612 
L 187.279664 193.677826 
L 187.382803 193.40508 
L 187.69222 193.59137 
L 187.79536 193.43899 
L 188.001638 193.684396 
L 188.207916 193.485831 
L 188.311055 193.741407 
L 188.414194 193.422207 
L 188.620473 193.603436 
L 188.723612 193.687883 
L 188.92989 193.441924 
L 189.033029 193.643701 
L 189.136168 193.575924 
L 189.239308 193.226887 
L 189.445586 193.754913 
L 189.651864 193.691429 
L 189.755003 193.856852 
L 189.961282 193.628933 
L 190.064421 193.757347 
L 190.16756 193.34634 
L 190.270699 193.808609 
L 190.373838 193.770116 
L 190.476977 193.802082 
L 190.580117 193.449182 
L 190.889534 193.833176 
L 191.714647 193.773823 
L 191.817786 193.541386 
L 192.024065 194.020245 
L 192.230343 193.693089 
L 192.333482 193.190152 
L 192.436621 193.81966 
L 192.539761 193.328692 
L 192.746039 193.838189 
L 192.849178 193.760043 
L 193.158595 193.983407 
L 193.364874 193.925435 
L 193.674291 193.677074 
L 193.77743 194.032139 
L 193.983709 193.758652 
L 194.086848 194.042405 
L 194.189987 193.828083 
L 194.396265 193.926375 
L 194.602544 193.892975 
L 194.808822 194.023796 
L 195.0151 193.897998 
L 195.221378 194.169755 
L 195.324518 193.910618 
L 195.530796 194.023962 
L 195.737074 193.944952 
L 195.840213 194.144436 
L 196.046492 194.003107 
L 196.25277 194.138236 
L 196.665327 193.960048 
L 196.768466 193.870401 
L 196.871605 194.086522 
L 196.974744 193.976616 
L 197.077883 193.406005 
L 197.181022 193.896113 
L 197.284161 193.856315 
L 197.387301 193.351718 
L 197.593579 194.244505 
L 197.696718 194.26629 
L 197.799857 194.05604 
L 198.006136 194.146912 
L 198.62497 194.265968 
L 198.72811 193.960483 
L 198.934388 194.241792 
L 199.243805 194.110139 
L 199.346945 194.377152 
L 199.656362 194.188209 
L 199.759501 194.335243 
L 199.86264 193.971507 
L 200.068919 194.384217 
L 200.172058 194.341174 
L 200.275197 194.167327 
L 200.584614 194.276261 
L 200.790893 194.245128 
L 200.894032 194.331493 
L 200.997171 193.961762 
L 201.203449 194.391383 
L 201.306588 194.142577 
L 201.512867 194.450097 
L 201.719145 194.325116 
L 201.822284 194.423719 
L 202.028562 194.262889 
L 202.131702 194.499393 
L 202.33798 194.230478 
L 202.544258 194.467176 
L 202.750537 194.482723 
L 202.956815 194.369244 
L 203.059954 194.550371 
L 203.163093 194.193705 
L 203.266232 194.491856 
L 203.369371 194.308602 
L 203.57565 194.556812 
L 203.678789 194.184642 
L 203.885067 194.602466 
L 204.194485 194.624267 
L 204.297624 194.658182 
L 204.503902 194.537123 
L 204.607041 194.524482 
L 204.71018 194.652783 
L 204.916459 194.381004 
L 205.122737 194.524364 
L 205.225876 194.297062 
L 205.432154 194.598104 
L 205.535294 194.432191 
L 205.638433 194.659272 
L 205.94785 194.353799 
L 206.050989 194.645111 
L 206.154129 194.467541 
L 206.257268 194.696228 
L 206.463546 194.527807 
L 206.566685 194.638492 
L 206.669824 194.470904 
L 206.876103 194.71826 
L 206.979242 194.730455 
L 207.082381 194.591877 
L 207.18552 194.048938 
L 207.288659 194.711631 
L 207.391798 194.271641 
L 207.494937 194.659127 
L 207.598077 194.502128 
L 207.701216 194.808686 
L 208.010633 194.660712 
L 208.320051 194.831094 
L 208.526329 194.319567 
L 208.732607 194.901627 
L 208.938886 194.717282 
L 209.145164 194.856279 
L 209.454581 194.894783 
L 209.66086 194.423053 
L 209.867138 194.815944 
L 210.279695 194.790442 
L 210.382834 194.822004 
L 210.589112 194.518384 
L 210.692251 194.786241 
L 210.79539 194.721935 
L 211.001669 194.473671 
L 211.207947 195.00427 
L 211.311086 194.515182 
L 211.517364 194.854485 
L 211.620504 194.322511 
L 211.723643 194.85578 
L 211.929921 194.788411 
L 212.136199 194.941989 
L 212.651895 194.795707 
L 212.755034 194.91452 
L 212.858173 194.827269 
L 213.064452 194.457339 
L 213.27073 194.980148 
L 213.477008 194.821043 
L 213.683287 195.00464 
L 213.889565 194.868974 
L 213.992704 194.750182 
L 214.095843 195.085628 
L 214.302121 194.975732 
L 214.405261 194.901498 
L 214.611539 195.098919 
L 214.714678 194.779998 
L 214.817817 195.065858 
L 214.920956 194.87317 
L 215.127235 195.205698 
L 215.333513 194.872316 
L 215.436652 194.93551 
L 215.539791 195.214777 
L 215.74607 194.610374 
L 215.849209 195.235348 
L 215.952348 194.315452 
L 216.158626 195.187615 
L 216.261765 194.662845 
L 216.571183 195.273502 
L 216.8806 194.839346 
L 217.086879 195.192359 
L 217.190018 195.183538 
L 217.293157 194.314356 
L 217.396296 195.268549 
L 217.602574 195.164219 
L 217.705713 195.256574 
L 217.911992 194.974658 
L 218.11827 195.327235 
L 218.221409 194.495735 
L 218.427688 195.195319 
L 218.530827 194.933485 
L 218.943383 195.191752 
L 219.046522 195.214992 
L 219.149662 195.050826 
L 219.252801 195.265825 
L 219.35594 194.858659 
L 219.562218 195.213273 
L 219.665357 194.955076 
L 219.871636 195.342127 
L 220.077914 195.17391 
L 220.181053 195.342041 
L 220.284192 195.237932 
L 220.387331 194.720361 
L 220.490471 195.310565 
L 220.59361 195.24144 
L 220.696749 195.036127 
L 220.903027 195.353216 
L 221.006166 194.159371 
L 221.212445 195.266555 
L 221.315584 195.101046 
L 221.521862 194.992198 
L 221.72814 195.359603 
L 221.83128 195.037594 
L 222.037558 195.369451 
L 222.243836 195.283279 
L 222.346975 195.269827 
L 222.553254 195.430061 
L 222.759532 195.20897 
L 222.862671 195.114461 
L 223.068949 195.35653 
L 223.584645 195.254382 
L 223.687784 195.414014 
L 223.894063 195.351851 
L 223.997202 195.448703 
L 224.306619 195.307363 
L 224.409758 195.386809 
L 224.512897 195.188093 
L 224.616037 195.364664 
L 224.719176 194.869442 
L 224.925454 195.624688 
L 225.028593 195.371508 
L 225.234872 195.463299 
L 225.338011 195.558195 
L 225.44115 194.889496 
L 225.544289 195.55892 
L 225.647428 195.177746 
L 225.750567 195.587866 
L 225.853706 195.292122 
L 225.956846 195.521728 
L 226.059985 195.206063 
L 226.163124 195.576348 
L 226.266263 195.532269 
L 226.369402 194.849521 
L 226.575681 195.448375 
L 226.67882 195.408856 
L 226.781959 195.193616 
L 226.988237 195.440102 
L 227.091376 195.384026 
L 227.194515 195.607303 
L 227.297655 195.454285 
L 227.503933 195.554397 
L 227.607072 194.952024 
L 227.81335 195.558571 
L 227.916489 195.323571 
L 228.225907 195.575376 
L 228.535324 195.373034 
L 228.638464 195.56194 
L 228.741603 195.164428 
L 228.844742 195.720696 
L 229.154159 195.113381 
L 229.257298 195.448509 
L 229.360438 195.245716 
L 229.566716 195.650545 
L 229.669855 195.586534 
L 229.876133 195.596569 
L 229.979273 195.546752 
L 230.185551 195.691487 
L 230.391829 195.454521 
L 230.598107 195.64145 
L 230.907525 195.511172 
L 231.010664 195.580753 
L 231.113803 195.080384 
L 231.216942 195.840638 
L 231.423221 195.621921 
L 231.52636 195.780527 
L 231.629499 195.598041 
L 231.732638 195.649212 
L 231.835777 195.559452 
L 231.938916 195.803843 
L 232.042056 195.60004 
L 232.248334 195.777632 
L 232.454612 195.561741 
L 232.66089 195.792953 
L 232.76403 195.54123 
L 232.867169 195.781849 
L 232.970308 195.160952 
L 233.176586 195.949152 
L 233.279725 195.071284 
L 233.382865 195.737984 
L 233.486004 195.710972 
L 233.589143 195.609726 
L 233.795421 195.721475 
L 233.89856 195.390231 
L 234.104839 195.708882 
L 234.207978 195.483241 
L 234.311117 195.747568 
L 234.517395 195.560801 
L 234.723674 195.788672 
L 234.826813 195.887323 
L 234.929952 194.740797 
L 235.033091 195.574108 
L 235.13623 195.518193 
L 235.239369 195.94003 
L 235.445648 195.639344 
L 235.548787 195.659414 
L 235.651926 195.936458 
L 235.755065 195.612299 
L 235.858204 195.795108 
L 235.961343 195.225876 
L 236.064482 195.922715 
L 236.167622 195.568134 
L 236.3739 195.861563 
L 236.786457 195.834927 
L 236.889596 195.247349 
L 236.992735 195.809613 
L 237.095874 195.754251 
L 237.199013 195.41966 
L 237.302152 195.724543 
L 237.405291 194.953631 
L 237.508431 195.90626 
L 237.714709 195.10666 
L 237.817848 195.843281 
L 237.920987 195.700695 
L 238.230405 195.995757 
L 238.333544 195.352791 
L 238.436683 195.899856 
L 238.539822 195.8665 
L 238.642961 195.924408 
L 238.7461 195.812105 
L 238.84924 195.373217 
L 238.952379 195.992786 
L 239.055518 195.973 
L 239.158657 195.064031 
L 239.261796 195.814684 
L 239.364935 195.350589 
L 239.571214 195.963464 
L 239.674353 195.440913 
L 239.880631 195.943608 
L 239.98377 195.78685 
L 240.293188 195.881403 
L 240.602605 195.900351 
L 240.705744 195.304054 
L 240.808883 195.91723 
L 241.22144 195.667269 
L 241.324579 195.871754 
L 241.427718 195.673667 
L 241.530858 195.766086 
L 241.633997 195.606068 
L 241.840275 195.965828 
L 241.943414 195.75113 
L 242.149692 195.978743 
L 242.355971 195.933079 
L 242.562249 196.066988 
L 242.768527 195.950732 
L 242.871666 195.881843 
L 242.974806 196.015758 
L 243.077945 195.849857 
L 243.181084 195.442267 
L 243.387362 196.156447 
L 243.490501 196.249834 
L 243.593641 195.842341 
L 243.903058 196.019159 
L 244.006197 195.838962 
L 244.109336 196.064114 
L 244.315615 195.733611 
L 244.418754 196.11457 
L 244.521893 195.893882 
L 244.625032 195.935808 
L 244.83131 195.305585 
L 245.037589 195.9927 
L 245.347006 196.016247 
L 245.553284 196.058876 
L 245.656424 196.158677 
L 245.759563 195.925396 
L 245.965841 196.203815 
L 246.172119 196.013367 
L 246.275258 196.150892 
L 246.481537 196.048524 
L 246.584676 195.991867 
L 246.687815 195.687383 
L 246.790954 196.038929 
L 246.894093 195.975353 
L 246.997233 196.086457 
L 247.100372 195.774548 
L 247.203511 195.847616 
L 247.30665 195.368854 
L 247.512928 196.203267 
L 247.719207 195.982197 
L 247.822346 196.316445 
L 248.028624 195.831908 
L 248.234902 196.117214 
L 248.441181 196.104132 
L 248.54432 195.766651 
L 248.647459 195.945913 
L 248.750598 195.900544 
L 248.956876 196.034953 
L 249.266294 196.199925 
L 249.472572 195.943882 
L 249.67885 196.175449 
L 249.78199 195.882638 
L 250.091407 196.18809 
L 250.194546 196.08484 
L 250.297685 196.23997 
L 250.607103 195.687511 
L 250.710242 196.164055 
L 250.813381 195.995053 
L 251.019659 196.250656 
L 251.535355 195.872168 
L 251.741634 196.248985 
L 251.844773 195.983895 
L 251.947912 196.167418 
L 252.051051 195.948728 
L 252.257329 196.284254 
L 252.463608 196.06095 
L 252.669886 196.351966 
L 252.876164 196.037338 
L 253.082442 196.278167 
L 253.185582 196.193688 
L 253.288721 195.910778 
L 253.494999 196.191292 
L 253.598138 196.242366 
L 253.701277 195.720766 
L 253.804417 196.344338 
L 254.010695 196.160708 
L 254.113834 196.316654 
L 254.423251 196.152735 
L 254.62953 196.359563 
L 254.732669 196.182798 
L 254.835808 196.413022 
L 255.248365 196.024031 
L 255.351504 196.120958 
L 255.454643 195.966886 
L 255.660921 196.371484 
L 255.970339 196.109032 
L 256.073478 196.280203 
L 256.176617 196.08859 
L 256.279756 196.308967 
L 256.486034 196.242168 
L 256.589174 196.245853 
L 256.795452 196.402842 
L 257.104869 196.124606 
L 257.311148 196.35729 
L 257.517426 196.158677 
L 257.826843 196.233357 
L 257.929983 196.32402 
L 258.033122 196.120448 
L 258.136261 196.356844 
L 258.2394 196.269013 
L 258.445678 196.039084 
L 258.755096 196.470355 
L 258.858235 196.370404 
L 258.961374 196.130177 
L 259.167652 196.353551 
L 259.270792 196.478559 
L 259.373931 196.224568 
L 259.47707 196.355576 
L 259.580209 196.014023 
L 259.683348 196.452337 
L 259.786487 196.110004 
L 259.992766 196.372392 
L 260.095905 196.383265 
L 260.199044 195.964528 
L 260.302183 196.421312 
L 260.405322 196.107501 
L 260.508461 196.464043 
L 260.611601 196.267374 
L 260.71474 196.37064 
L 260.817879 196.299984 
L 260.921018 196.519308 
L 261.127296 196.074547 
L 261.230435 196.15381 
L 261.746131 196.185479 
L 261.84927 195.780833 
L 261.95241 195.863502 
L 262.158688 196.657553 
L 262.261827 196.394757 
L 262.364966 196.475072 
L 262.468105 196.397738 
L 262.571244 196.555173 
L 262.674384 196.180112 
L 262.880662 196.371392 
L 262.983801 195.980908 
L 263.08694 196.365478 
L 263.293218 196.08852 
L 263.396358 196.447464 
L 263.499497 195.773554 
L 263.602636 196.37395 
L 263.705775 196.236328 
L 263.912053 196.398872 
L 264.015193 196.46414 
L 264.118332 196.186323 
L 264.221471 196.620226 
L 264.32461 196.136538 
L 264.427749 196.515386 
L 264.737167 195.746547 
L 264.943445 196.582222 
L 265.046584 196.305829 
L 265.356002 196.505904 
L 265.974836 196.407204 
L 266.181115 196.105002 
L 266.387393 196.419861 
L 266.490532 196.142372 
L 266.593671 196.48219 
L 266.69681 196.20872 
L 266.903089 196.520935 
L 267.006228 196.263581 
L 267.109367 196.551477 
L 267.212506 196.2865 
L 267.315645 196.416187 
L 267.418785 196.349984 
L 267.521924 196.044124 
L 267.728202 196.584753 
L 267.831341 196.449097 
L 267.93448 196.507639 
L 268.140759 196.286886 
L 268.243898 196.539464 
L 268.553315 196.4158 
L 268.656454 196.572536 
L 268.862733 196.410057 
L 268.965872 196.557703 
L 269.17215 196.448479 
L 269.481568 196.657821 
L 269.584707 196.402622 
L 269.790985 196.53644 
L 269.997263 196.463635 
L 270.203542 196.514231 
L 270.306681 196.284501 
L 270.40982 196.450021 
L 270.616098 196.385887 
L 270.925516 196.548329 
L 271.131794 196.509503 
L 271.234933 196.056754 
L 271.441211 196.541425 
L 271.853768 196.191056 
L 272.163186 196.665584 
L 272.266325 196.282196 
L 272.472603 196.684629 
L 272.575742 196.299893 
L 272.88516 196.511255 
L 273.091438 196.267611 
L 273.194577 196.527414 
L 273.400855 196.31356 
L 273.503995 196.056953 
L 273.710273 196.637487 
L 273.813412 196.418733 
L 273.916551 196.705285 
L 274.01969 196.279725 
L 274.122829 196.604716 
L 274.225969 196.464929 
L 274.432247 196.629713 
L 274.535386 196.365118 
L 274.638525 196.53485 
L 274.741664 196.428199 
L 274.844803 196.661442 
L 275.154221 196.235672 
L 275.566778 196.712613 
L 275.669917 196.591269 
L 275.773056 196.516251 
L 275.876195 196.092856 
L 276.082473 196.665235 
L 276.185612 196.431659 
L 276.49503 196.602003 
L 276.701308 196.442726 
L 276.804447 196.372171 
L 277.010726 196.678091 
L 277.320143 196.605329 
L 277.526421 196.678628 
L 277.7327 196.605543 
L 277.835839 196.772396 
L 277.938978 196.19054 
L 278.042117 196.644235 
L 278.145256 196.556602 
L 278.351535 196.64662 
L 278.86723 196.555839 
L 279.073509 196.656091 
L 279.176648 196.563505 
L 279.382926 196.732936 
L 279.692344 196.419544 
L 279.795483 196.753228 
L 280.001761 195.86383 
L 280.1049 196.747608 
L 280.208039 196.650305 
L 280.311179 196.816395 
L 280.414318 196.370979 
L 280.517457 196.809024 
L 280.723735 196.433609 
L 280.826874 196.544213 
L 281.033153 195.947347 
L 281.136292 196.478682 
L 281.239431 196.101827 
L 281.34257 196.493214 
L 281.445709 196.254508 
L 281.651987 196.671623 
L 281.755127 196.637041 
L 281.858266 196.791494 
L 281.961405 196.595798 
L 282.064544 196.650069 
L 282.167683 196.360884 
L 282.373962 196.634495 
L 282.58024 196.463586 
L 282.683379 196.676646 
L 282.786518 195.761816 
L 282.992796 196.603137 
L 283.095936 196.404964 
L 283.302214 196.723454 
L 283.405353 196.750063 
L 283.611631 196.58276 
L 283.714771 196.624406 
L 283.81791 195.955486 
L 283.921049 196.661367 
L 284.024188 196.063115 
L 284.127327 196.573197 
L 284.230466 196.430713 
L 284.333605 196.7809 
L 284.436745 196.58551 
L 284.539884 196.811619 
L 284.746162 196.317842 
L 284.95244 196.768834 
L 285.055579 196.42987 
L 285.261858 196.850906 
L 285.364997 196.893917 
L 285.468136 196.439653 
L 285.571275 196.656129 
L 285.674414 196.404722 
L 285.880693 196.699859 
L 286.086971 196.65658 
L 286.19011 196.784059 
L 286.293249 196.333002 
L 286.396388 196.44236 
L 286.499528 195.918702 
L 286.602667 196.834156 
L 286.705806 196.641506 
L 286.808945 196.872181 
L 286.912084 195.783391 
L 287.015223 196.811302 
L 287.118363 196.543859 
L 287.221502 196.720892 
L 287.324641 196.429821 
L 287.530919 196.820918 
L 287.634058 196.621671 
L 287.943476 196.801068 
L 288.046615 196.477012 
L 288.149754 196.942848 
L 288.252893 196.590163 
L 288.459171 196.800665 
L 288.562311 196.581073 
L 288.768589 196.950079 
L 288.871728 196.825952 
L 288.974867 196.280187 
L 289.181146 196.686708 
L 289.284285 196.644202 
L 289.387424 196.823513 
L 289.593702 196.70607 
L 289.79998 196.733667 
L 289.90312 196.247384 
L 290.006259 196.697571 
L 290.109398 196.653862 
L 290.212537 196.85312 
L 290.315676 196.705307 
L 290.418815 196.920101 
L 290.521955 196.234609 
L 290.625094 196.411808 
L 290.728233 196.891032 
L 291.347068 196.444445 
L 291.450207 196.545643 
L 291.553346 197.012268 
L 291.656485 196.755822 
L 291.759624 196.158295 
L 291.965903 196.691516 
L 292.069042 196.52382 
L 292.172181 196.754173 
L 292.27532 196.029156 
L 292.481598 196.641925 
L 292.687877 196.754538 
L 292.791016 196.098378 
L 292.894155 196.751224 
L 292.997294 196.622251 
L 293.203572 197.028788 
L 293.51299 196.426646 
L 293.616129 196.552766 
L 293.719268 196.899832 
L 293.822407 196.695782 
L 294.028686 196.897935 
L 294.131825 196.589765 
L 294.234964 196.62505 
L 294.338103 196.684339 
L 294.441242 197.065653 
L 294.647521 196.590216 
L 294.75066 196.954871 
L 294.956938 196.621762 
L 295.163216 196.815294 
L 295.266355 196.33766 
L 295.472634 196.809422 
L 295.575773 196.575292 
L 295.782051 196.738593 
L 295.88519 196.548914 
L 295.98833 196.917695 
L 296.400886 196.73689 
L 296.504025 195.970223 
L 296.710304 196.597469 
L 296.813443 196.520339 
L 297.019721 196.922057 
L 297.225999 196.778279 
L 297.432278 196.962011 
L 297.638556 196.407682 
L 297.844834 196.673664 
L 298.154252 196.773809 
L 298.257391 196.722649 
L 298.36053 196.902448 
L 298.566808 196.591833 
L 298.669947 196.690007 
L 298.979365 196.19069 
L 299.082504 197.072599 
L 299.185643 196.414462 
L 299.495061 196.893498 
L 299.5982 196.415537 
L 299.804478 196.764644 
L 299.907617 196.927343 
L 300.010756 196.880137 
L 300.113896 196.571311 
L 300.320174 196.807842 
L 300.423313 196.54987 
L 300.629591 196.852432 
L 300.732731 196.901798 
L 300.83587 197.107809 
L 300.939009 196.567766 
L 301.042148 196.819119 
L 301.145287 196.422945 
L 301.351565 196.63933 
L 301.557844 196.576248 
L 301.660983 197.007637 
L 301.764122 196.547206 
L 301.867261 196.977488 
L 302.176679 196.723342 
L 302.382957 196.75363 
L 302.486096 196.320914 
L 302.692374 197.012118 
L 303.001792 196.673868 
L 303.20807 196.924587 
L 303.311209 196.658761 
L 303.414348 196.870526 
L 303.620627 196.719699 
L 303.723766 196.883962 
L 303.826905 196.835853 
L 303.930044 196.948832 
L 304.239462 196.637132 
L 304.342601 196.998719 
L 304.44574 196.96849 
L 304.652018 196.762543 
L 304.755157 197.117818 
L 304.961436 196.791747 
L 305.064575 196.892166 
L 305.167714 196.182154 
L 305.270853 196.992429 
L 305.373992 196.844041 
L 305.580271 197.043503 
L 305.786549 196.818678 
L 305.889688 196.900208 
L 305.992827 196.774663 
L 306.302245 196.971573 
L 306.405384 196.627769 
L 306.611662 196.865481 
L 306.714801 196.828681 
L 306.81794 196.18029 
L 306.92108 197.026242 
L 307.127358 196.671381 
L 307.230497 197.018984 
L 307.436775 196.770338 
L 307.849332 196.969344 
L 307.952471 196.886788 
L 308.05561 196.501552 
L 308.158749 196.852862 
L 308.261889 196.789378 
L 308.365028 197.104838 
L 308.571306 196.629445 
L 308.674445 196.686531 
L 308.777584 197.04115 
L 308.983863 196.333314 
L 309.087002 196.974646 
L 309.190141 196.78674 
L 309.29328 196.318223 
L 309.396419 196.874738 
L 309.499558 196.422279 
L 309.602698 196.862392 
L 309.705837 196.562237 
L 310.118393 196.879057 
L 310.324672 196.845061 
L 310.427811 196.91539 
L 310.53095 196.794981 
L 310.634089 196.986025 
L 310.840367 196.622224 
L 310.943507 197.015309 
L 311.252924 196.849913 
L 311.356063 197.018092 
L 311.974898 196.701906 
L 312.078037 197.029992 
L 312.284316 196.508337 
L 312.490594 196.953109 
L 312.696872 196.862806 
L 312.800011 196.850321 
L 312.90315 195.67126 
L 313.00629 196.725474 
L 313.109429 196.168814 
L 313.212568 197.024399 
L 313.418846 196.505426 
L 313.521985 197.02528 
L 313.728264 196.647925 
L 313.831403 196.952389 
L 313.934542 196.912451 
L 314.037681 196.774572 
L 314.14082 197.004989 
L 314.347099 196.857735 
L 314.553377 196.593273 
L 314.656516 196.91741 
L 314.965933 196.722788 
L 315.069073 197.018425 
L 315.172212 196.858481 
L 315.275351 196.338122 
L 315.481629 196.977843 
L 315.687908 196.895588 
L 315.791047 196.911624 
L 315.894186 197.083607 
L 315.997325 196.773497 
L 316.100464 196.977891 
L 316.203603 196.541404 
L 316.306742 196.85623 
L 316.409882 196.482755 
L 316.61616 196.908852 
L 316.719299 197.066641 
L 316.822438 196.805253 
L 317.131856 197.122363 
L 317.338134 196.90024 
L 317.441273 197.004307 
L 317.544412 196.798919 
L 317.750691 196.933854 
L 317.85383 196.782383 
L 318.060108 197.069129 
L 318.163247 196.733318 
L 318.369525 196.965116 
L 318.575804 196.801256 
L 318.678943 196.928665 
L 318.782082 196.835886 
L 318.885221 196.951787 
L 318.98836 196.84208 
L 319.0915 196.998719 
L 319.194639 196.802277 
L 319.297778 197.034579 
L 319.504056 196.913999 
L 319.710334 196.757649 
L 319.916613 197.025774 
L 320.019752 195.184564 
L 320.122891 197.129497 
L 320.329169 196.98596 
L 320.432308 196.974689 
L 320.535448 197.145748 
L 320.741726 196.688518 
L 320.844865 196.960345 
L 320.948004 196.88458 
L 321.051143 196.624733 
L 321.257422 197.006767 
L 321.4637 196.773116 
L 321.566839 197.108319 
L 321.669978 196.834005 
L 321.773117 196.900423 
L 321.876257 196.738583 
L 321.979396 196.993159 
L 322.288813 196.672407 
L 322.391952 196.789308 
L 322.495092 197.097537 
L 322.70137 196.948972 
L 322.804509 197.073486 
L 322.907648 196.834446 
L 323.010787 196.954285 
L 323.113926 196.351263 
L 323.217066 197.070928 
L 323.526483 196.769371 
L 323.629622 197.101706 
L 323.8359 196.751422 
L 323.93904 196.160729 
L 324.145318 196.986068 
L 324.454735 196.749327 
L 324.661014 196.940151 
L 324.764153 196.958932 
L 324.867292 196.659148 
L 324.970431 196.872105 
L 325.07357 196.810668 
L 325.176709 197.081512 
L 325.382988 196.977134 
L 325.486127 196.520661 
L 325.692405 197.03921 
L 325.898684 196.928482 
L 326.104962 196.519238 
L 326.31124 197.025312 
L 326.414379 197.076558 
L 326.517518 196.712457 
L 326.620658 196.863564 
L 326.723797 196.511018 
L 326.826936 197.010963 
L 326.930075 196.942246 
L 327.033214 197.078466 
L 327.136353 196.690882 
L 327.239492 197.119402 
L 327.445771 196.962569 
L 327.652049 197.066598 
L 327.755188 197.189119 
L 327.858327 197.030545 
L 327.961467 197.112848 
L 328.270884 196.872713 
L 328.477162 197.031625 
L 328.580301 196.835499 
L 328.683441 197.177939 
L 328.78658 196.806993 
L 328.889719 197.09426 
L 328.992858 196.911882 
L 329.095997 197.254397 
L 329.199136 196.719108 
L 329.405415 197.032189 
L 329.508554 196.577559 
L 329.611693 196.639405 
L 329.714832 197.132634 
L 329.92111 196.609943 
L 330.127389 196.94389 
L 330.333667 196.974974 
L 330.436806 196.36695 
L 330.643084 197.060184 
L 330.746224 197.167022 
L 330.849363 196.945969 
L 330.952502 197.213729 
L 331.055641 196.568862 
L 331.15878 197.191961 
L 331.261919 196.20223 
L 331.365059 197.161784 
L 331.468198 197.016163 
L 331.571337 197.094883 
L 331.777615 196.845427 
L 331.880754 196.938002 
L 331.983893 196.401998 
L 332.190172 197.043965 
L 332.293311 196.749155 
L 332.39645 196.793047 
L 332.602728 197.022379 
L 332.705868 196.984397 
L 332.912146 196.554818 
L 333.015285 196.603701 
L 333.118424 197.015674 
L 333.221563 196.6832 
L 333.324702 196.888674 
L 333.427842 196.642736 
L 333.63412 196.947221 
L 333.737259 196.79092 
L 333.943537 196.905451 
L 334.046676 197.150379 
L 334.149816 197.090483 
L 334.252955 196.663801 
L 334.459233 196.949488 
L 334.562372 197.211897 
L 334.665511 197.131882 
L 334.768651 196.892058 
L 334.87179 197.142176 
L 335.078068 196.829428 
L 335.181207 196.552428 
L 335.387485 196.976521 
L 335.490625 196.926688 
L 335.593764 197.009598 
L 335.696903 196.717448 
L 336.00632 197.117356 
L 336.10946 197.189817 
L 336.212599 197.092036 
L 336.418877 196.85002 
L 336.831434 197.157078 
L 336.934573 196.891156 
L 337.037712 197.033833 
L 337.140851 196.893772 
L 337.24399 197.074872 
L 337.347129 197.026236 
L 337.450268 196.776731 
L 337.656547 197.142235 
L 337.965964 196.754877 
L 338.275382 197.195721 
L 338.378521 197.015782 
L 338.48166 196.433362 
L 338.584799 197.05335 
L 338.687938 196.782845 
L 338.791077 197.15934 
L 339.100495 196.370775 
L 339.203634 196.96337 
L 339.306773 196.701654 
L 339.513052 197.066641 
L 339.616191 197.014525 
L 339.71933 196.36306 
L 339.822469 197.012854 
L 339.925608 196.894062 
L 340.028747 197.169053 
L 340.131886 196.713177 
L 340.338165 197.124683 
L 340.441304 197.070746 
L 340.544443 196.847183 
L 340.647582 197.212144 
L 340.750721 197.118586 
L 340.85386 196.624803 
L 341.163278 197.126188 
L 341.266417 197.011914 
L 341.369556 196.738712 
L 341.472695 196.104637 
L 341.678974 196.540356 
L 341.782113 196.519619 
L 341.885252 197.225527 
L 341.988391 196.866352 
L 342.09153 196.908771 
L 342.194669 197.158733 
L 342.297809 196.71481 
L 342.710365 197.089769 
L 342.916644 196.328108 
L 343.019783 197.088732 
L 343.226061 196.905134 
L 343.3292 197.248171 
L 343.432339 196.862484 
L 343.535478 196.932334 
L 343.741757 197.145442 
L 343.844896 197.079218 
L 343.948035 197.154645 
L 344.051174 196.838045 
L 344.154313 196.891779 
L 344.257453 196.798081 
L 344.463731 197.037341 
L 344.56687 197.125059 
L 344.670009 196.79049 
L 344.773148 197.012145 
L 344.979427 196.941967 
L 345.082566 197.05666 
L 345.288844 196.972444 
L 345.495122 197.02889 
L 345.598261 196.327657 
L 345.80454 197.295672 
L 345.907679 196.554802 
L 346.113957 197.207975 
L 346.423375 197.101749 
L 346.526514 197.150153 
L 346.732792 196.406011 
L 347.145349 197.131297 
L 347.248488 196.825807 
L 347.454766 197.252614 
L 347.557905 197.052238 
L 347.661045 196.81726 
L 347.764184 197.002475 
L 347.867323 196.797184 
L 347.970462 196.97182 
L 348.073601 196.872471 
L 348.17674 197.014519 
L 348.279879 196.806268 
L 348.383019 197.076607 
L 348.486158 196.769549 
L 348.692436 197.026913 
L 348.795575 196.652497 
L 348.898714 197.171003 
L 349.001853 196.651057 
L 349.104993 197.036825 
L 349.208132 196.644616 
L 349.311271 197.214127 
L 349.517549 196.819414 
L 349.620688 197.031372 
L 349.930106 196.852008 
L 350.136384 197.006955 
L 350.548941 197.074684 
L 350.65208 196.866078 
L 350.858358 197.053259 
L 351.064637 196.648167 
L 351.270915 197.147645 
L 351.374054 197.163138 
L 351.477193 196.99721 
L 351.88975 197.168639 
L 352.096028 196.658493 
L 352.199167 197.298912 
L 352.302306 196.468308 
L 352.508585 197.056359 
L 352.611724 196.838663 
L 352.818002 197.074705 
L 352.921141 196.198201 
L 353.12742 197.242417 
L 353.230559 196.671778 
L 353.436837 196.883855 
L 353.539976 196.994642 
L 353.643115 196.730911 
L 353.952533 197.315781 
L 354.055672 196.599199 
L 354.158811 196.745921 
L 354.26195 196.402358 
L 354.365089 196.458515 
L 354.571368 196.984649 
L 354.777646 197.209705 
L 354.983924 196.875678 
L 355.087063 197.063525 
L 355.293342 196.949993 
L 355.396481 196.727527 
L 355.49962 197.01006 
L 355.602759 196.683699 
L 355.705898 197.211623 
L 355.809037 196.988657 
L 355.912177 197.176376 
L 356.015316 196.972078 
L 356.118455 196.455872 
L 356.324733 197.235841 
L 356.531012 196.95053 
L 356.634151 197.230931 
L 356.73729 196.412243 
L 356.840429 196.915508 
L 356.943568 196.60823 
L 357.149846 197.337028 
L 357.252986 196.495444 
L 357.459264 197.005789 
L 357.562403 197.197021 
L 357.768681 197.032124 
L 357.871821 197.326531 
L 357.97496 196.850563 
L 358.078099 196.948832 
L 358.284377 196.831475 
L 358.387516 196.910104 
L 358.490655 197.16085 
L 358.593795 196.922471 
L 358.696934 197.071648 
L 358.800073 196.847232 
L 358.903212 197.161822 
L 359.006351 196.788373 
L 359.10949 196.922266 
L 359.212629 196.165097 
L 359.418908 197.162289 
L 359.522047 197.018092 
L 359.625186 197.086169 
L 359.728325 196.395879 
L 359.934604 196.97318 
L 360.140882 196.886938 
L 360.244021 197.227025 
L 360.450299 196.911339 
L 360.553438 197.21042 
L 360.862856 196.644955 
L 361.069134 196.957482 
L 361.172273 196.701036 
L 361.275413 196.959147 
L 361.481691 196.974415 
L 361.58483 197.116824 
L 361.687969 196.665079 
L 361.894247 197.09577 
L 361.997387 197.063574 
L 362.100526 197.148316 
L 362.203665 197.003555 
L 362.306804 197.106708 
L 362.409943 196.839662 
L 362.409943 196.839662 
" style="fill:none;stroke:#0000ff;stroke-linecap:square;stroke-width:1.5;"/>
   </g>
   <g id="patch_3">
    <path d="M 42.828125 224.64 
L 42.828125 7.2 
" style="fill:none;stroke:#000000;stroke-linecap:square;stroke-linejoin:miter;stroke-width:0.8;"/>
   </g>
   <g id="patch_4">
    <path d="M 377.628125 224.64 
L 377.628125 7.2 
" style="fill:none;stroke:#000000;stroke-linecap:square;stroke-linejoin:miter;stroke-width:0.8;"/>
   </g>
   <g id="patch_5">
    <path d="M 42.828125 224.64 
L 377.628125 224.64 
" style="fill:none;stroke:#000000;stroke-linecap:square;stroke-linejoin:miter;stroke-width:0.8;"/>
   </g>
   <g id="patch_6">
    <path d="M 42.828125 7.2 
L 377.628125 7.2 
" style="fill:none;stroke:#000000;stroke-linecap:square;stroke-linejoin:miter;stroke-width:0.8;"/>
   </g>
   <g id="legend_1">
    <g id="patch_7">
     <path d="M 289.246875 44.55625 
L 370.628125 44.55625 
Q 372.628125 44.55625 372.628125 42.55625 
L 372.628125 14.2 
Q 372.628125 12.2 370.628125 12.2 
L 289.246875 12.2 
Q 287.246875 12.2 287.246875 14.2 
L 287.246875 42.55625 
Q 287.246875 44.55625 289.246875 44.55625 
z
" style="fill:#ffffff;opacity:0.8;stroke:#cccccc;stroke-linejoin:miter;"/>
    </g>
    <g id="line2d_17">
     <path d="M 291.246875 20.298437 
L 311.246875 20.298437 
" style="fill:none;stroke:#ff0000;stroke-linecap:square;stroke-width:1.5;"/>
    </g>
    <g id="line2d_18"/>
    <g id="text_15">
     <!-- Training -->
     <defs>
      <path d="M -0.296875 72.90625 
L 61.375 72.90625 
L 61.375 64.59375 
L 35.5 64.59375 
L 35.5 0 
L 25.59375 0 
L 25.59375 64.59375 
L -0.296875 64.59375 
z
" id="DejaVuSans-84"/>
      <path d="M 41.109375 46.296875 
Q 39.59375 47.171875 37.8125 47.578125 
Q 36.03125 48 33.890625 48 
Q 26.265625 48 22.1875 43.046875 
Q 18.109375 38.09375 18.109375 28.8125 
L 18.109375 0 
L 9.078125 0 
L 9.078125 54.6875 
L 18.109375 54.6875 
L 18.109375 46.1875 
Q 20.953125 51.171875 25.484375 53.578125 
Q 30.03125 56 36.53125 56 
Q 37.453125 56 38.578125 55.875 
Q 39.703125 55.765625 41.0625 55.515625 
z
" id="DejaVuSans-114"/>
      <path d="M 34.28125 27.484375 
Q 23.390625 27.484375 19.1875 25 
Q 14.984375 22.515625 14.984375 16.5 
Q 14.984375 11.71875 18.140625 8.90625 
Q 21.296875 6.109375 26.703125 6.109375 
Q 34.1875 6.109375 38.703125 11.40625 
Q 43.21875 16.703125 43.21875 25.484375 
L 43.21875 27.484375 
z
M 52.203125 31.203125 
L 52.203125 0 
L 43.21875 0 
L 43.21875 8.296875 
Q 40.140625 3.328125 35.546875 0.953125 
Q 30.953125 -1.421875 24.3125 -1.421875 
Q 15.921875 -1.421875 10.953125 3.296875 
Q 6 8.015625 6 15.921875 
Q 6 25.140625 12.171875 29.828125 
Q 18.359375 34.515625 30.609375 34.515625 
L 43.21875 34.515625 
L 43.21875 35.40625 
Q 43.21875 41.609375 39.140625 45 
Q 35.0625 48.390625 27.6875 48.390625 
Q 23 48.390625 18.546875 47.265625 
Q 14.109375 46.140625 10.015625 43.890625 
L 10.015625 52.203125 
Q 14.9375 54.109375 19.578125 55.046875 
Q 24.21875 56 28.609375 56 
Q 40.484375 56 46.34375 49.84375 
Q 52.203125 43.703125 52.203125 31.203125 
z
" id="DejaVuSans-97"/>
      <path d="M 9.421875 54.6875 
L 18.40625 54.6875 
L 18.40625 0 
L 9.421875 0 
z
M 9.421875 75.984375 
L 18.40625 75.984375 
L 18.40625 64.59375 
L 9.421875 64.59375 
z
" id="DejaVuSans-105"/>
      <path d="M 54.890625 33.015625 
L 54.890625 0 
L 45.90625 0 
L 45.90625 32.71875 
Q 45.90625 40.484375 42.875 44.328125 
Q 39.84375 48.1875 33.796875 48.1875 
Q 26.515625 48.1875 22.3125 43.546875 
Q 18.109375 38.921875 18.109375 30.90625 
L 18.109375 0 
L 9.078125 0 
L 9.078125 54.6875 
L 18.109375 54.6875 
L 18.109375 46.1875 
Q 21.34375 51.125 25.703125 53.5625 
Q 30.078125 56 35.796875 56 
Q 45.21875 56 50.046875 50.171875 
Q 54.890625 44.34375 54.890625 33.015625 
z
" id="DejaVuSans-110"/>
      <path d="M 45.40625 27.984375 
Q 45.40625 37.75 41.375 43.109375 
Q 37.359375 48.484375 30.078125 48.484375 
Q 22.859375 48.484375 18.828125 43.109375 
Q 14.796875 37.75 14.796875 27.984375 
Q 14.796875 18.265625 18.828125 12.890625 
Q 22.859375 7.515625 30.078125 7.515625 
Q 37.359375 7.515625 41.375 12.890625 
Q 45.40625 18.265625 45.40625 27.984375 
z
M 54.390625 6.78125 
Q 54.390625 -7.171875 48.1875 -13.984375 
Q 42 -20.796875 29.203125 -20.796875 
Q 24.46875 -20.796875 20.265625 -20.09375 
Q 16.0625 -19.390625 12.109375 -17.921875 
L 12.109375 -9.1875 
Q 16.0625 -11.328125 19.921875 -12.34375 
Q 23.78125 -13.375 27.78125 -13.375 
Q 36.625 -13.375 41.015625 -8.765625 
Q 45.40625 -4.15625 45.40625 5.171875 
L 45.40625 9.625 
Q 42.625 4.78125 38.28125 2.390625 
Q 33.9375 0 27.875 0 
Q 17.828125 0 11.671875 7.65625 
Q 5.515625 15.328125 5.515625 27.984375 
Q 5.515625 40.671875 11.671875 48.328125 
Q 17.828125 56 27.875 56 
Q 33.9375 56 38.28125 53.609375 
Q 42.625 51.21875 45.40625 46.390625 
L 45.40625 54.6875 
L 54.390625 54.6875 
z
" id="DejaVuSans-103"/>
     </defs>
     <g transform="translate(319.246875 23.798437)scale(0.1 -0.1)">
      <use xlink:href="#DejaVuSans-84"/>
      <use x="46.333984" xlink:href="#DejaVuSans-114"/>
      <use x="87.447266" xlink:href="#DejaVuSans-97"/>
      <use x="148.726562" xlink:href="#DejaVuSans-105"/>
      <use x="176.509766" xlink:href="#DejaVuSans-110"/>
      <use x="239.888672" xlink:href="#DejaVuSans-105"/>
      <use x="267.671875" xlink:href="#DejaVuSans-110"/>
      <use x="331.050781" xlink:href="#DejaVuSans-103"/>
     </g>
    </g>
    <g id="line2d_19">
     <path d="M 291.246875 34.976562 
L 311.246875 34.976562 
" style="fill:none;stroke:#0000ff;stroke-linecap:square;stroke-width:1.5;"/>
    </g>
    <g id="line2d_20"/>
    <g id="text_16">
     <!-- Validation -->
     <defs>
      <path d="M 28.609375 0 
L 0.78125 72.90625 
L 11.078125 72.90625 
L 34.1875 11.53125 
L 57.328125 72.90625 
L 67.578125 72.90625 
L 39.796875 0 
z
" id="DejaVuSans-86"/>
      <path d="M 9.421875 75.984375 
L 18.40625 75.984375 
L 18.40625 0 
L 9.421875 0 
z
" id="DejaVuSans-108"/>
      <path d="M 45.40625 46.390625 
L 45.40625 75.984375 
L 54.390625 75.984375 
L 54.390625 0 
L 45.40625 0 
L 45.40625 8.203125 
Q 42.578125 3.328125 38.25 0.953125 
Q 33.9375 -1.421875 27.875 -1.421875 
Q 17.96875 -1.421875 11.734375 6.484375 
Q 5.515625 14.40625 5.515625 27.296875 
Q 5.515625 40.1875 11.734375 48.09375 
Q 17.96875 56 27.875 56 
Q 33.9375 56 38.25 53.625 
Q 42.578125 51.265625 45.40625 46.390625 
z
M 14.796875 27.296875 
Q 14.796875 17.390625 18.875 11.75 
Q 22.953125 6.109375 30.078125 6.109375 
Q 37.203125 6.109375 41.296875 11.75 
Q 45.40625 17.390625 45.40625 27.296875 
Q 45.40625 37.203125 41.296875 42.84375 
Q 37.203125 48.484375 30.078125 48.484375 
Q 22.953125 48.484375 18.875 42.84375 
Q 14.796875 37.203125 14.796875 27.296875 
z
" id="DejaVuSans-100"/>
      <path d="M 18.3125 70.21875 
L 18.3125 54.6875 
L 36.8125 54.6875 
L 36.8125 47.703125 
L 18.3125 47.703125 
L 18.3125 18.015625 
Q 18.3125 11.328125 20.140625 9.421875 
Q 21.96875 7.515625 27.59375 7.515625 
L 36.8125 7.515625 
L 36.8125 0 
L 27.59375 0 
Q 17.1875 0 13.234375 3.875 
Q 9.28125 7.765625 9.28125 18.015625 
L 9.28125 47.703125 
L 2.6875 47.703125 
L 2.6875 54.6875 
L 9.28125 54.6875 
L 9.28125 70.21875 
z
" id="DejaVuSans-116"/>
      <path d="M 30.609375 48.390625 
Q 23.390625 48.390625 19.1875 42.75 
Q 14.984375 37.109375 14.984375 27.296875 
Q 14.984375 17.484375 19.15625 11.84375 
Q 23.34375 6.203125 30.609375 6.203125 
Q 37.796875 6.203125 41.984375 11.859375 
Q 46.1875 17.53125 46.1875 27.296875 
Q 46.1875 37.015625 41.984375 42.703125 
Q 37.796875 48.390625 30.609375 48.390625 
z
M 30.609375 56 
Q 42.328125 56 49.015625 48.375 
Q 55.71875 40.765625 55.71875 27.296875 
Q 55.71875 13.875 49.015625 6.21875 
Q 42.328125 -1.421875 30.609375 -1.421875 
Q 18.84375 -1.421875 12.171875 6.21875 
Q 5.515625 13.875 5.515625 27.296875 
Q 5.515625 40.765625 12.171875 48.375 
Q 18.84375 56 30.609375 56 
z
" id="DejaVuSans-111"/>
     </defs>
     <g transform="translate(319.246875 38.476562)scale(0.1 -0.1)">
      <use xlink:href="#DejaVuSans-86"/>
      <use x="60.658203" xlink:href="#DejaVuSans-97"/>
      <use x="121.9375" xlink:href="#DejaVuSans-108"/>
      <use x="149.720703" xlink:href="#DejaVuSans-105"/>
      <use x="177.503906" xlink:href="#DejaVuSans-100"/>
      <use x="240.980469" xlink:href="#DejaVuSans-97"/>
      <use x="302.259766" xlink:href="#DejaVuSans-116"/>
      <use x="341.46875" xlink:href="#DejaVuSans-105"/>
      <use x="369.251953" xlink:href="#DejaVuSans-111"/>
      <use x="430.433594" xlink:href="#DejaVuSans-110"/>
     </g>
    </g>
   </g>
  </g>
 </g>
 <defs>
  <clipPath id="p91ddfc7981">
   <rect height="217.44" width="334.8" x="42.828125" y="7.2"/>
  </clipPath>
 </defs>
</svg>
