<?xml version="1.0" encoding="utf-8" standalone="no"?>
<!DOCTYPE svg PUBLIC "-//W3C//DTD SVG 1.1//EN"
  "http://www.w3.org/Graphics/SVG/1.1/DTD/svg11.dtd">
<!-- Created with matplotlib (https://matplotlib.org/) -->
<svg height="288pt" version="1.1" viewBox="0 0 432 288" width="432pt" xmlns="http://www.w3.org/2000/svg" xmlns:xlink="http://www.w3.org/1999/xlink">
 <defs>
  <style type="text/css">
*{stroke-linecap:butt;stroke-linejoin:round;}
  </style>
 </defs>
 <g id="figure_1">
  <g id="patch_1">
   <path d="M 0 288 
L 432 288 
L 432 0 
L 0 0 
z
" style="fill:#ffffff;"/>
  </g>
  <g id="axes_1">
   <g id="patch_2">
    <path d="M 54 252 
L 388.8 252 
L 388.8 34.56 
L 54 34.56 
z
" style="fill:#ffffff;"/>
   </g>
   <g id="matplotlib.axis_1">
    <g id="xtick_1">
     <g id="line2d_1">
      <defs>
       <path d="M 0 0 
L 0 3.5 
" id="m8032e3f9f5" style="stroke:#000000;stroke-width:0.8;"/>
      </defs>
      <g>
       <use style="stroke:#000000;stroke-width:0.8;" x="69.218182" xlink:href="#m8032e3f9f5" y="252"/>
      </g>
     </g>
     <g id="text_1">
      <!-- 0 -->
      <defs>
       <path d="M 31.78125 66.40625 
Q 24.171875 66.40625 20.328125 58.90625 
Q 16.5 51.421875 16.5 36.375 
Q 16.5 21.390625 20.328125 13.890625 
Q 24.171875 6.390625 31.78125 6.390625 
Q 39.453125 6.390625 43.28125 13.890625 
Q 47.125 21.390625 47.125 36.375 
Q 47.125 51.421875 43.28125 58.90625 
Q 39.453125 66.40625 31.78125 66.40625 
z
M 31.78125 74.21875 
Q 44.046875 74.21875 50.515625 64.515625 
Q 56.984375 54.828125 56.984375 36.375 
Q 56.984375 17.96875 50.515625 8.265625 
Q 44.046875 -1.421875 31.78125 -1.421875 
Q 19.53125 -1.421875 13.0625 8.265625 
Q 6.59375 17.96875 6.59375 36.375 
Q 6.59375 54.828125 13.0625 64.515625 
Q 19.53125 74.21875 31.78125 74.21875 
z
" id="DejaVuSans-48"/>
      </defs>
      <g transform="translate(66.036932 266.598437)scale(0.1 -0.1)">
       <use xlink:href="#DejaVuSans-48"/>
      </g>
     </g>
    </g>
    <g id="xtick_2">
     <g id="line2d_2">
      <g>
       <use style="stroke:#000000;stroke-width:0.8;" x="112.636675" xlink:href="#m8032e3f9f5" y="252"/>
      </g>
     </g>
     <g id="text_2">
      <!-- 200 -->
      <defs>
       <path d="M 19.1875 8.296875 
L 53.609375 8.296875 
L 53.609375 0 
L 7.328125 0 
L 7.328125 8.296875 
Q 12.9375 14.109375 22.625 23.890625 
Q 32.328125 33.6875 34.8125 36.53125 
Q 39.546875 41.84375 41.421875 45.53125 
Q 43.3125 49.21875 43.3125 52.78125 
Q 43.3125 58.59375 39.234375 62.25 
Q 35.15625 65.921875 28.609375 65.921875 
Q 23.96875 65.921875 18.8125 64.3125 
Q 13.671875 62.703125 7.8125 59.421875 
L 7.8125 69.390625 
Q 13.765625 71.78125 18.9375 73 
Q 24.125 74.21875 28.421875 74.21875 
Q 39.75 74.21875 46.484375 68.546875 
Q 53.21875 62.890625 53.21875 53.421875 
Q 53.21875 48.921875 51.53125 44.890625 
Q 49.859375 40.875 45.40625 35.40625 
Q 44.1875 33.984375 37.640625 27.21875 
Q 31.109375 20.453125 19.1875 8.296875 
z
" id="DejaVuSans-50"/>
      </defs>
      <g transform="translate(103.092925 266.598437)scale(0.1 -0.1)">
       <use xlink:href="#DejaVuSans-50"/>
       <use x="63.623047" xlink:href="#DejaVuSans-48"/>
       <use x="127.246094" xlink:href="#DejaVuSans-48"/>
      </g>
     </g>
    </g>
    <g id="xtick_3">
     <g id="line2d_3">
      <g>
       <use style="stroke:#000000;stroke-width:0.8;" x="156.055168" xlink:href="#m8032e3f9f5" y="252"/>
      </g>
     </g>
     <g id="text_3">
      <!-- 400 -->
      <defs>
       <path d="M 37.796875 64.3125 
L 12.890625 25.390625 
L 37.796875 25.390625 
z
M 35.203125 72.90625 
L 47.609375 72.90625 
L 47.609375 25.390625 
L 58.015625 25.390625 
L 58.015625 17.1875 
L 47.609375 17.1875 
L 47.609375 0 
L 37.796875 0 
L 37.796875 17.1875 
L 4.890625 17.1875 
L 4.890625 26.703125 
z
" id="DejaVuSans-52"/>
      </defs>
      <g transform="translate(146.511418 266.598437)scale(0.1 -0.1)">
       <use xlink:href="#DejaVuSans-52"/>
       <use x="63.623047" xlink:href="#DejaVuSans-48"/>
       <use x="127.246094" xlink:href="#DejaVuSans-48"/>
      </g>
     </g>
    </g>
    <g id="xtick_4">
     <g id="line2d_4">
      <g>
       <use style="stroke:#000000;stroke-width:0.8;" x="199.473661" xlink:href="#m8032e3f9f5" y="252"/>
      </g>
     </g>
     <g id="text_4">
      <!-- 600 -->
      <defs>
       <path d="M 33.015625 40.375 
Q 26.375 40.375 22.484375 35.828125 
Q 18.609375 31.296875 18.609375 23.390625 
Q 18.609375 15.53125 22.484375 10.953125 
Q 26.375 6.390625 33.015625 6.390625 
Q 39.65625 6.390625 43.53125 10.953125 
Q 47.40625 15.53125 47.40625 23.390625 
Q 47.40625 31.296875 43.53125 35.828125 
Q 39.65625 40.375 33.015625 40.375 
z
M 52.59375 71.296875 
L 52.59375 62.3125 
Q 48.875 64.0625 45.09375 64.984375 
Q 41.3125 65.921875 37.59375 65.921875 
Q 27.828125 65.921875 22.671875 59.328125 
Q 17.53125 52.734375 16.796875 39.40625 
Q 19.671875 43.65625 24.015625 45.921875 
Q 28.375 48.1875 33.59375 48.1875 
Q 44.578125 48.1875 50.953125 41.515625 
Q 57.328125 34.859375 57.328125 23.390625 
Q 57.328125 12.15625 50.6875 5.359375 
Q 44.046875 -1.421875 33.015625 -1.421875 
Q 20.359375 -1.421875 13.671875 8.265625 
Q 6.984375 17.96875 6.984375 36.375 
Q 6.984375 53.65625 15.1875 63.9375 
Q 23.390625 74.21875 37.203125 74.21875 
Q 40.921875 74.21875 44.703125 73.484375 
Q 48.484375 72.75 52.59375 71.296875 
z
" id="DejaVuSans-54"/>
      </defs>
      <g transform="translate(189.929911 266.598437)scale(0.1 -0.1)">
       <use xlink:href="#DejaVuSans-54"/>
       <use x="63.623047" xlink:href="#DejaVuSans-48"/>
       <use x="127.246094" xlink:href="#DejaVuSans-48"/>
      </g>
     </g>
    </g>
    <g id="xtick_5">
     <g id="line2d_5">
      <g>
       <use style="stroke:#000000;stroke-width:0.8;" x="242.892154" xlink:href="#m8032e3f9f5" y="252"/>
      </g>
     </g>
     <g id="text_5">
      <!-- 800 -->
      <defs>
       <path d="M 31.78125 34.625 
Q 24.75 34.625 20.71875 30.859375 
Q 16.703125 27.09375 16.703125 20.515625 
Q 16.703125 13.921875 20.71875 10.15625 
Q 24.75 6.390625 31.78125 6.390625 
Q 38.8125 6.390625 42.859375 10.171875 
Q 46.921875 13.96875 46.921875 20.515625 
Q 46.921875 27.09375 42.890625 30.859375 
Q 38.875 34.625 31.78125 34.625 
z
M 21.921875 38.8125 
Q 15.578125 40.375 12.03125 44.71875 
Q 8.5 49.078125 8.5 55.328125 
Q 8.5 64.0625 14.71875 69.140625 
Q 20.953125 74.21875 31.78125 74.21875 
Q 42.671875 74.21875 48.875 69.140625 
Q 55.078125 64.0625 55.078125 55.328125 
Q 55.078125 49.078125 51.53125 44.71875 
Q 48 40.375 41.703125 38.8125 
Q 48.828125 37.15625 52.796875 32.3125 
Q 56.78125 27.484375 56.78125 20.515625 
Q 56.78125 9.90625 50.3125 4.234375 
Q 43.84375 -1.421875 31.78125 -1.421875 
Q 19.734375 -1.421875 13.25 4.234375 
Q 6.78125 9.90625 6.78125 20.515625 
Q 6.78125 27.484375 10.78125 32.3125 
Q 14.796875 37.15625 21.921875 38.8125 
z
M 18.3125 54.390625 
Q 18.3125 48.734375 21.84375 45.5625 
Q 25.390625 42.390625 31.78125 42.390625 
Q 38.140625 42.390625 41.71875 45.5625 
Q 45.3125 48.734375 45.3125 54.390625 
Q 45.3125 60.0625 41.71875 63.234375 
Q 38.140625 66.40625 31.78125 66.40625 
Q 25.390625 66.40625 21.84375 63.234375 
Q 18.3125 60.0625 18.3125 54.390625 
z
" id="DejaVuSans-56"/>
      </defs>
      <g transform="translate(233.348404 266.598437)scale(0.1 -0.1)">
       <use xlink:href="#DejaVuSans-56"/>
       <use x="63.623047" xlink:href="#DejaVuSans-48"/>
       <use x="127.246094" xlink:href="#DejaVuSans-48"/>
      </g>
     </g>
    </g>
    <g id="xtick_6">
     <g id="line2d_6">
      <g>
       <use style="stroke:#000000;stroke-width:0.8;" x="286.310647" xlink:href="#m8032e3f9f5" y="252"/>
      </g>
     </g>
     <g id="text_6">
      <!-- 1000 -->
      <defs>
       <path d="M 12.40625 8.296875 
L 28.515625 8.296875 
L 28.515625 63.921875 
L 10.984375 60.40625 
L 10.984375 69.390625 
L 28.421875 72.90625 
L 38.28125 72.90625 
L 38.28125 8.296875 
L 54.390625 8.296875 
L 54.390625 0 
L 12.40625 0 
z
" id="DejaVuSans-49"/>
      </defs>
      <g transform="translate(273.585647 266.598437)scale(0.1 -0.1)">
       <use xlink:href="#DejaVuSans-49"/>
       <use x="63.623047" xlink:href="#DejaVuSans-48"/>
       <use x="127.246094" xlink:href="#DejaVuSans-48"/>
       <use x="190.869141" xlink:href="#DejaVuSans-48"/>
      </g>
     </g>
    </g>
    <g id="xtick_7">
     <g id="line2d_7">
      <g>
       <use style="stroke:#000000;stroke-width:0.8;" x="329.72914" xlink:href="#m8032e3f9f5" y="252"/>
      </g>
     </g>
     <g id="text_7">
      <!-- 1200 -->
      <g transform="translate(317.00414 266.598437)scale(0.1 -0.1)">
       <use xlink:href="#DejaVuSans-49"/>
       <use x="63.623047" xlink:href="#DejaVuSans-50"/>
       <use x="127.246094" xlink:href="#DejaVuSans-48"/>
       <use x="190.869141" xlink:href="#DejaVuSans-48"/>
      </g>
     </g>
    </g>
    <g id="xtick_8">
     <g id="line2d_8">
      <g>
       <use style="stroke:#000000;stroke-width:0.8;" x="373.147633" xlink:href="#m8032e3f9f5" y="252"/>
      </g>
     </g>
     <g id="text_8">
      <!-- 1400 -->
      <g transform="translate(360.422633 266.598437)scale(0.1 -0.1)">
       <use xlink:href="#DejaVuSans-49"/>
       <use x="63.623047" xlink:href="#DejaVuSans-52"/>
       <use x="127.246094" xlink:href="#DejaVuSans-48"/>
       <use x="190.869141" xlink:href="#DejaVuSans-48"/>
      </g>
     </g>
    </g>
    <g id="text_9">
     <!-- Epoch -->
     <defs>
      <path d="M 9.8125 72.90625 
L 55.90625 72.90625 
L 55.90625 64.59375 
L 19.671875 64.59375 
L 19.671875 43.015625 
L 54.390625 43.015625 
L 54.390625 34.71875 
L 19.671875 34.71875 
L 19.671875 8.296875 
L 56.78125 8.296875 
L 56.78125 0 
L 9.8125 0 
z
" id="DejaVuSans-69"/>
      <path d="M 18.109375 8.203125 
L 18.109375 -20.796875 
L 9.078125 -20.796875 
L 9.078125 54.6875 
L 18.109375 54.6875 
L 18.109375 46.390625 
Q 20.953125 51.265625 25.265625 53.625 
Q 29.59375 56 35.59375 56 
Q 45.5625 56 51.78125 48.09375 
Q 58.015625 40.1875 58.015625 27.296875 
Q 58.015625 14.40625 51.78125 6.484375 
Q 45.5625 -1.421875 35.59375 -1.421875 
Q 29.59375 -1.421875 25.265625 0.953125 
Q 20.953125 3.328125 18.109375 8.203125 
z
M 48.6875 27.296875 
Q 48.6875 37.203125 44.609375 42.84375 
Q 40.53125 48.484375 33.40625 48.484375 
Q 26.265625 48.484375 22.1875 42.84375 
Q 18.109375 37.203125 18.109375 27.296875 
Q 18.109375 17.390625 22.1875 11.75 
Q 26.265625 6.109375 33.40625 6.109375 
Q 40.53125 6.109375 44.609375 11.75 
Q 48.6875 17.390625 48.6875 27.296875 
z
" id="DejaVuSans-112"/>
      <path d="M 30.609375 48.390625 
Q 23.390625 48.390625 19.1875 42.75 
Q 14.984375 37.109375 14.984375 27.296875 
Q 14.984375 17.484375 19.15625 11.84375 
Q 23.34375 6.203125 30.609375 6.203125 
Q 37.796875 6.203125 41.984375 11.859375 
Q 46.1875 17.53125 46.1875 27.296875 
Q 46.1875 37.015625 41.984375 42.703125 
Q 37.796875 48.390625 30.609375 48.390625 
z
M 30.609375 56 
Q 42.328125 56 49.015625 48.375 
Q 55.71875 40.765625 55.71875 27.296875 
Q 55.71875 13.875 49.015625 6.21875 
Q 42.328125 -1.421875 30.609375 -1.421875 
Q 18.84375 -1.421875 12.171875 6.21875 
Q 5.515625 13.875 5.515625 27.296875 
Q 5.515625 40.765625 12.171875 48.375 
Q 18.84375 56 30.609375 56 
z
" id="DejaVuSans-111"/>
      <path d="M 48.78125 52.59375 
L 48.78125 44.1875 
Q 44.96875 46.296875 41.140625 47.34375 
Q 37.3125 48.390625 33.40625 48.390625 
Q 24.65625 48.390625 19.8125 42.84375 
Q 14.984375 37.3125 14.984375 27.296875 
Q 14.984375 17.28125 19.8125 11.734375 
Q 24.65625 6.203125 33.40625 6.203125 
Q 37.3125 6.203125 41.140625 7.25 
Q 44.96875 8.296875 48.78125 10.40625 
L 48.78125 2.09375 
Q 45.015625 0.34375 40.984375 -0.53125 
Q 36.96875 -1.421875 32.421875 -1.421875 
Q 20.0625 -1.421875 12.78125 6.34375 
Q 5.515625 14.109375 5.515625 27.296875 
Q 5.515625 40.671875 12.859375 48.328125 
Q 20.21875 56 33.015625 56 
Q 37.15625 56 41.109375 55.140625 
Q 45.0625 54.296875 48.78125 52.59375 
z
" id="DejaVuSans-99"/>
      <path d="M 54.890625 33.015625 
L 54.890625 0 
L 45.90625 0 
L 45.90625 32.71875 
Q 45.90625 40.484375 42.875 44.328125 
Q 39.84375 48.1875 33.796875 48.1875 
Q 26.515625 48.1875 22.3125 43.546875 
Q 18.109375 38.921875 18.109375 30.90625 
L 18.109375 0 
L 9.078125 0 
L 9.078125 75.984375 
L 18.109375 75.984375 
L 18.109375 46.1875 
Q 21.34375 51.125 25.703125 53.5625 
Q 30.078125 56 35.796875 56 
Q 45.21875 56 50.046875 50.171875 
Q 54.890625 44.34375 54.890625 33.015625 
z
" id="DejaVuSans-104"/>
     </defs>
     <g transform="translate(206.089063 280.276563)scale(0.1 -0.1)">
      <use xlink:href="#DejaVuSans-69"/>
      <use x="63.183594" xlink:href="#DejaVuSans-112"/>
      <use x="126.660156" xlink:href="#DejaVuSans-111"/>
      <use x="187.841797" xlink:href="#DejaVuSans-99"/>
      <use x="242.822266" xlink:href="#DejaVuSans-104"/>
     </g>
    </g>
   </g>
   <g id="matplotlib.axis_2">
    <g id="ytick_1">
     <g id="line2d_9">
      <defs>
       <path d="M 0 0 
L -3.5 0 
" id="m9c7d4f5c0c" style="stroke:#000000;stroke-width:0.8;"/>
      </defs>
      <g>
       <use style="stroke:#000000;stroke-width:0.8;" x="54" xlink:href="#m9c7d4f5c0c" y="241.822995"/>
      </g>
     </g>
     <g id="text_10">
      <!-- 0.06 -->
      <defs>
       <path d="M 10.6875 12.40625 
L 21 12.40625 
L 21 0 
L 10.6875 0 
z
" id="DejaVuSans-46"/>
      </defs>
      <g transform="translate(24.734375 245.622214)scale(0.1 -0.1)">
       <use xlink:href="#DejaVuSans-48"/>
       <use x="63.623047" xlink:href="#DejaVuSans-46"/>
       <use x="95.410156" xlink:href="#DejaVuSans-48"/>
       <use x="159.033203" xlink:href="#DejaVuSans-54"/>
      </g>
     </g>
    </g>
    <g id="ytick_2">
     <g id="line2d_10">
      <g>
       <use style="stroke:#000000;stroke-width:0.8;" x="54" xlink:href="#m9c7d4f5c0c" y="213.391675"/>
      </g>
     </g>
     <g id="text_11">
      <!-- 0.08 -->
      <g transform="translate(24.734375 217.190894)scale(0.1 -0.1)">
       <use xlink:href="#DejaVuSans-48"/>
       <use x="63.623047" xlink:href="#DejaVuSans-46"/>
       <use x="95.410156" xlink:href="#DejaVuSans-48"/>
       <use x="159.033203" xlink:href="#DejaVuSans-56"/>
      </g>
     </g>
    </g>
    <g id="ytick_3">
     <g id="line2d_11">
      <g>
       <use style="stroke:#000000;stroke-width:0.8;" x="54" xlink:href="#m9c7d4f5c0c" y="184.960355"/>
      </g>
     </g>
     <g id="text_12">
      <!-- 0.10 -->
      <g transform="translate(24.734375 188.759574)scale(0.1 -0.1)">
       <use xlink:href="#DejaVuSans-48"/>
       <use x="63.623047" xlink:href="#DejaVuSans-46"/>
       <use x="95.410156" xlink:href="#DejaVuSans-49"/>
       <use x="159.033203" xlink:href="#DejaVuSans-48"/>
      </g>
     </g>
    </g>
    <g id="ytick_4">
     <g id="line2d_12">
      <g>
       <use style="stroke:#000000;stroke-width:0.8;" x="54" xlink:href="#m9c7d4f5c0c" y="156.529035"/>
      </g>
     </g>
     <g id="text_13">
      <!-- 0.12 -->
      <g transform="translate(24.734375 160.328254)scale(0.1 -0.1)">
       <use xlink:href="#DejaVuSans-48"/>
       <use x="63.623047" xlink:href="#DejaVuSans-46"/>
       <use x="95.410156" xlink:href="#DejaVuSans-49"/>
       <use x="159.033203" xlink:href="#DejaVuSans-50"/>
      </g>
     </g>
    </g>
    <g id="ytick_5">
     <g id="line2d_13">
      <g>
       <use style="stroke:#000000;stroke-width:0.8;" x="54" xlink:href="#m9c7d4f5c0c" y="128.097715"/>
      </g>
     </g>
     <g id="text_14">
      <!-- 0.14 -->
      <g transform="translate(24.734375 131.896934)scale(0.1 -0.1)">
       <use xlink:href="#DejaVuSans-48"/>
       <use x="63.623047" xlink:href="#DejaVuSans-46"/>
       <use x="95.410156" xlink:href="#DejaVuSans-49"/>
       <use x="159.033203" xlink:href="#DejaVuSans-52"/>
      </g>
     </g>
    </g>
    <g id="ytick_6">
     <g id="line2d_14">
      <g>
       <use style="stroke:#000000;stroke-width:0.8;" x="54" xlink:href="#m9c7d4f5c0c" y="99.666395"/>
      </g>
     </g>
     <g id="text_15">
      <!-- 0.16 -->
      <g transform="translate(24.734375 103.465614)scale(0.1 -0.1)">
       <use xlink:href="#DejaVuSans-48"/>
       <use x="63.623047" xlink:href="#DejaVuSans-46"/>
       <use x="95.410156" xlink:href="#DejaVuSans-49"/>
       <use x="159.033203" xlink:href="#DejaVuSans-54"/>
      </g>
     </g>
    </g>
    <g id="ytick_7">
     <g id="line2d_15">
      <g>
       <use style="stroke:#000000;stroke-width:0.8;" x="54" xlink:href="#m9c7d4f5c0c" y="71.235075"/>
      </g>
     </g>
     <g id="text_16">
      <!-- 0.18 -->
      <g transform="translate(24.734375 75.034294)scale(0.1 -0.1)">
       <use xlink:href="#DejaVuSans-48"/>
       <use x="63.623047" xlink:href="#DejaVuSans-46"/>
       <use x="95.410156" xlink:href="#DejaVuSans-49"/>
       <use x="159.033203" xlink:href="#DejaVuSans-56"/>
      </g>
     </g>
    </g>
    <g id="ytick_8">
     <g id="line2d_16">
      <g>
       <use style="stroke:#000000;stroke-width:0.8;" x="54" xlink:href="#m9c7d4f5c0c" y="42.803755"/>
      </g>
     </g>
     <g id="text_17">
      <!-- 0.20 -->
      <g transform="translate(24.734375 46.602974)scale(0.1 -0.1)">
       <use xlink:href="#DejaVuSans-48"/>
       <use x="63.623047" xlink:href="#DejaVuSans-46"/>
       <use x="95.410156" xlink:href="#DejaVuSans-50"/>
       <use x="159.033203" xlink:href="#DejaVuSans-48"/>
      </g>
     </g>
    </g>
    <g id="text_18">
     <!-- MSE -->
     <defs>
      <path d="M 9.8125 72.90625 
L 24.515625 72.90625 
L 43.109375 23.296875 
L 61.8125 72.90625 
L 76.515625 72.90625 
L 76.515625 0 
L 66.890625 0 
L 66.890625 64.015625 
L 48.09375 14.015625 
L 38.1875 14.015625 
L 19.390625 64.015625 
L 19.390625 0 
L 9.8125 0 
z
" id="DejaVuSans-77"/>
      <path d="M 53.515625 70.515625 
L 53.515625 60.890625 
Q 47.90625 63.578125 42.921875 64.890625 
Q 37.9375 66.21875 33.296875 66.21875 
Q 25.25 66.21875 20.875 63.09375 
Q 16.5 59.96875 16.5 54.203125 
Q 16.5 49.359375 19.40625 46.890625 
Q 22.3125 44.4375 30.421875 42.921875 
L 36.375 41.703125 
Q 47.40625 39.59375 52.65625 34.296875 
Q 57.90625 29 57.90625 20.125 
Q 57.90625 9.515625 50.796875 4.046875 
Q 43.703125 -1.421875 29.984375 -1.421875 
Q 24.8125 -1.421875 18.96875 -0.25 
Q 13.140625 0.921875 6.890625 3.21875 
L 6.890625 13.375 
Q 12.890625 10.015625 18.65625 8.296875 
Q 24.421875 6.59375 29.984375 6.59375 
Q 38.421875 6.59375 43.015625 9.90625 
Q 47.609375 13.234375 47.609375 19.390625 
Q 47.609375 24.75 44.3125 27.78125 
Q 41.015625 30.8125 33.5 32.328125 
L 27.484375 33.5 
Q 16.453125 35.6875 11.515625 40.375 
Q 6.59375 45.0625 6.59375 53.421875 
Q 6.59375 63.09375 13.40625 68.65625 
Q 20.21875 74.21875 32.171875 74.21875 
Q 37.3125 74.21875 42.625 73.28125 
Q 47.953125 72.359375 53.515625 70.515625 
z
" id="DejaVuSans-83"/>
     </defs>
     <g transform="translate(18.654688 153.927656)rotate(-90)scale(0.1 -0.1)">
      <use xlink:href="#DejaVuSans-77"/>
      <use x="86.279297" xlink:href="#DejaVuSans-83"/>
      <use x="149.755859" xlink:href="#DejaVuSans-69"/>
     </g>
    </g>
   </g>
   <g id="line2d_17">
    <path clip-path="url(#pd6cce6a96b)" d="M 69.218182 44.443636 
L 69.435274 66.121837 
L 69.869459 68.682446 
L 70.086552 71.008507 
L 70.303644 76.561605 
L 71.172014 130.607977 
L 71.606199 137.876541 
L 72.257476 145.000784 
L 72.908754 150.263435 
L 73.777124 155.435273 
L 74.645493 159.318012 
L 75.948048 163.953487 
L 78.118973 170.611587 
L 79.63862 174.90943 
L 80.941175 178.129634 
L 82.24373 180.886779 
L 84.414654 184.767703 
L 87.453949 189.336994 
L 90.276151 192.902251 
L 92.447076 195.282748 
L 95.703463 198.294094 
L 98.525665 200.573611 
L 102.650421 203.496298 
L 105.255531 205.118533 
L 106.340993 205.751289 
L 111.117028 208.291043 
L 120.017819 212.101354 
L 122.405836 212.970344 
L 124.142576 213.571296 
L 127.18187 214.573828 
L 133.043367 216.377846 
L 134.997199 216.944655 
L 137.168123 217.545751 
L 138.904863 218.021484 
L 146.937284 220.049833 
L 147.371469 220.129187 
L 163.219219 223.544595 
L 164.521774 223.779652 
L 166.258514 224.138484 
L 168.863623 224.608351 
L 171.034548 225.012472 
L 173.639658 225.490584 
L 178.415692 226.329102 
L 179.066969 226.418184 
L 180.803709 226.692056 
L 200.993308 229.661392 
L 205.769342 230.245553 
L 206.854805 230.393025 
L 217.058151 231.593367 
L 218.79489 231.758387 
L 220.53163 231.954015 
L 233.122993 233.233411 
L 233.991363 233.293701 
L 234.859733 233.421742 
L 235.51101 233.462915 
L 248.319466 234.632571 
L 249.187836 234.693579 
L 250.924575 234.849727 
L 252.010038 234.942533 
L 252.878407 235.000255 
L 257.437349 235.381588 
L 259.174089 235.517985 
L 263.515938 235.856472 
L 264.167216 235.902977 
L 314.74976 239.265595 
L 315.61813 239.289945 
L 321.913811 239.635776 
L 323.433459 239.719298 
L 326.255661 239.886467 
L 327.558216 239.942354 
L 337.978654 240.479939 
L 339.498301 240.537654 
L 340.149579 240.575489 
L 341.017948 240.63981 
L 343.84015 240.767335 
L 344.925613 240.790711 
L 345.793983 240.860083 
L 346.879445 240.906417 
L 348.616185 240.997976 
L 355.128959 241.298412 
L 355.997328 241.345995 
L 356.431513 241.352848 
L 357.082791 241.37482 
L 358.602438 241.47529 
L 359.470808 241.499072 
L 363.812657 241.711818 
L 366.851952 241.825322 
L 369.891246 241.979111 
L 370.542524 241.984076 
L 373.581818 242.116364 
L 373.581818 242.116364 
" style="fill:none;stroke:#ff0000;stroke-linecap:square;stroke-width:1.5;"/>
   </g>
   <g id="line2d_18">
    <path clip-path="url(#pd6cce6a96b)" d="M 69.218182 69.222703 
L 69.869459 73.15848 
L 70.086552 76.420563 
L 70.303644 85.362962 
L 70.737829 122.188848 
L 71.172014 134.829093 
L 71.823291 143.460974 
L 72.474569 149.282542 
L 73.125846 153.676857 
L 73.777124 157.084974 
L 75.079678 162.172283 
L 77.250603 168.889705 
L 79.204435 174.548396 
L 80.50699 177.901189 
L 81.592452 180.295601 
L 82.895007 182.770623 
L 84.414654 185.333714 
L 86.368487 188.2993 
L 89.407781 192.222076 
L 90.710336 193.735059 
L 91.144521 194.205671 
L 93.532538 196.517489 
L 94.618 197.494135 
L 94.835093 197.574025 
L 95.269278 198.082125 
L 100.696589 202.173593 
L 101.347867 202.612556 
L 102.433329 203.352904 
L 102.650421 203.285192 
L 103.084606 203.755673 
L 103.518791 204.004986 
L 104.604254 204.660453 
L 105.255531 204.948443 
L 105.472624 205.176941 
L 105.689716 205.212143 
L 106.340993 205.63544 
L 108.294826 206.672964 
L 109.380288 207.277248 
L 109.59738 207.299435 
L 110.46575 207.777325 
L 111.985397 208.473089 
L 112.419582 208.656847 
L 112.636675 208.636802 
L 114.156322 209.398854 
L 114.590507 209.580442 
L 115.241784 209.807673 
L 115.675969 210.027873 
L 116.761432 210.409291 
L 117.195617 210.59527 
L 118.281079 210.977785 
L 119.149449 211.282776 
L 119.366541 211.393817 
L 119.583634 211.238675 
L 119.800726 211.546972 
L 122.840021 212.527708 
L 123.274206 212.68677 
L 123.708391 212.816548 
L 127.833147 214.033061 
L 128.267332 214.081996 
L 128.484425 214.192005 
L 128.701517 214.087027 
L 129.135702 214.363545 
L 130.004072 214.580949 
L 131.306627 214.950371 
L 131.523719 214.676637 
L 131.957904 215.07917 
L 133.694644 215.540178 
L 134.563014 215.655348 
L 134.997199 215.878279 
L 135.214291 215.847572 
L 135.648476 216.049741 
L 137.819401 216.530204 
L 138.253586 216.650379 
L 138.687771 216.699471 
L 139.339048 216.878563 
L 139.990326 216.957878 
L 140.207418 217.091564 
L 140.42451 217.027851 
L 140.858695 217.220833 
L 141.075788 217.216757 
L 141.509973 217.369245 
L 141.944158 217.278876 
L 142.378343 217.562117 
L 142.812528 217.656361 
L 143.246712 217.553264 
L 143.680897 217.889974 
L 144.332175 217.821517 
L 144.549267 218.07447 
L 144.76636 218.06024 
L 145.200545 218.156699 
L 145.417637 218.138536 
L 145.851822 218.356907 
L 146.068915 218.22083 
L 146.286007 218.408638 
L 146.720192 218.393481 
L 146.937284 218.548949 
L 147.588562 218.610343 
L 148.022747 218.732974 
L 148.239839 218.691095 
L 149.108209 218.952515 
L 149.759486 219.089938 
L 149.976579 219.046706 
L 150.410764 219.206591 
L 150.627856 219.106696 
L 150.844949 219.298456 
L 151.930411 219.489884 
L 152.798781 219.682096 
L 153.015873 219.726529 
L 153.232966 219.35678 
L 153.450058 219.805681 
L 156.923538 220.367981 
L 157.574815 220.504156 
L 158.009 220.633138 
L 158.226093 220.536803 
L 158.660278 220.687659 
L 159.962832 220.937625 
L 161.265387 221.183045 
L 161.699572 221.089977 
L 161.916665 221.288964 
L 164.521774 221.569983 
L 164.738867 221.749729 
L 170.817456 222.658782 
L 171.251641 222.71359 
L 172.12001 222.814864 
L 172.337103 222.802313 
L 172.771288 222.93281 
L 173.205473 222.840213 
L 173.422565 223.045387 
L 180.369524 224.010633 
L 180.586617 223.924869 
L 180.803709 224.098539 
L 181.672079 224.10027 
L 182.106264 224.247957 
L 182.540449 224.249297 
L 182.974634 224.35579 
L 184.060096 224.507926 
L 184.277188 224.433152 
L 184.494281 224.553255 
L 185.145558 224.516576 
L 185.579743 224.687986 
L 186.448113 224.747649 
L 187.09939 224.904684 
L 187.533575 224.867418 
L 187.750668 224.861427 
L 188.184853 225.000039 
L 188.619038 224.99233 
L 191.007055 225.335096 
L 191.44124 225.441126 
L 191.875425 225.350966 
L 192.30961 225.527393 
L 192.526702 225.470853 
L 192.743795 225.582109 
L 192.960887 225.434834 
L 193.17798 225.613385 
L 193.395072 225.551573 
L 193.612164 225.662653 
L 194.046349 225.685474 
L 194.697627 225.76243 
L 194.914719 225.831971 
L 195.131812 225.706688 
L 195.348904 225.874772 
L 195.565997 225.866677 
L 195.783089 225.741223 
L 196.217274 225.956426 
L 197.519829 225.97436 
L 198.822384 226.215166 
L 200.342031 226.215023 
L 200.559123 226.420059 
L 200.993308 226.2697 
L 201.210401 226.505522 
L 202.730048 226.5494 
L 204.249695 226.689626 
L 204.466788 226.591619 
L 204.68388 226.836124 
L 205.118065 226.810042 
L 205.335158 226.781707 
L 205.55225 226.937306 
L 205.986435 226.770509 
L 206.42062 226.981216 
L 207.071897 226.9095 
L 207.28899 227.005018 
L 207.506082 226.955279 
L 207.723175 227.08905 
L 207.940267 226.990605 
L 208.374452 227.181791 
L 208.591545 227.088775 
L 209.242822 227.19996 
L 210.328284 227.294498 
L 210.545377 227.246706 
L 211.196654 227.400044 
L 211.630839 227.409145 
L 212.282116 227.528281 
L 212.499209 227.418671 
L 212.716301 227.54402 
L 212.933394 227.40073 
L 213.150486 227.538356 
L 213.367579 227.451018 
L 213.584671 227.543497 
L 214.018856 227.557694 
L 216.841058 227.86686 
L 217.058151 227.736898 
L 217.275243 227.941196 
L 217.492336 227.873367 
L 217.926521 227.967519 
L 218.79489 227.885415 
L 219.011983 228.064742 
L 219.229075 227.917415 
L 219.446168 228.108862 
L 225.524757 228.491103 
L 225.958942 228.590633 
L 226.827312 228.628441 
L 227.044404 228.606613 
L 227.261497 228.731289 
L 227.695681 228.735928 
L 228.998236 228.669386 
L 229.432421 228.677866 
L 229.866606 228.913675 
L 230.083699 228.942376 
L 230.300791 228.811571 
L 230.517884 228.880021 
L 230.734976 228.759618 
L 230.952068 228.971822 
L 231.169161 228.759141 
L 231.820438 229.028152 
L 232.688808 229.016882 
L 233.122993 229.094492 
L 233.340086 228.877852 
L 233.557178 229.135215 
L 237.24775 229.384129 
L 237.681935 229.496771 
L 238.11612 229.297869 
L 238.333212 229.518886 
L 238.550305 229.443942 
L 238.98449 229.54372 
L 239.635767 229.539284 
L 241.155414 229.688159 
L 241.372507 229.63748 
L 241.589599 229.747718 
L 241.806692 229.605029 
L 242.457969 229.731796 
L 245.280171 229.945744 
L 245.497264 230.001186 
L 245.714356 229.793098 
L 245.931449 230.010411 
L 246.148541 229.860542 
L 246.582726 230.018976 
L 247.234003 229.939034 
L 247.451096 230.078365 
L 247.885281 230.042542 
L 250.273298 230.182206 
L 250.49039 230.296213 
L 250.707483 230.281121 
L 250.924575 230.136361 
L 251.35876 230.288144 
L 251.575853 230.357679 
L 251.792945 230.019545 
L 252.661315 230.342803 
L 252.878407 230.268714 
L 253.529685 230.41433 
L 253.746777 230.33167 
L 254.180962 230.508757 
L 254.398055 230.388588 
L 254.615147 230.487824 
L 254.83224 230.272379 
L 255.049332 230.598714 
L 255.483517 230.29835 
L 255.70061 230.548094 
L 256.568979 230.574567 
L 256.786072 230.515061 
L 257.003164 230.625011 
L 257.220257 230.553608 
L 257.654442 230.724919 
L 258.088627 230.666962 
L 258.305719 230.761258 
L 258.522812 230.682838 
L 259.174089 230.738515 
L 259.391181 230.715028 
L 259.608274 230.810899 
L 260.042459 230.754999 
L 260.476644 230.852699 
L 260.693736 230.761016 
L 260.910829 230.908324 
L 261.127921 230.830244 
L 261.345014 230.923233 
L 261.562106 230.789737 
L 261.996291 230.903548 
L 262.430476 230.944859 
L 262.647568 230.836529 
L 262.864661 231.005083 
L 263.081753 230.880975 
L 263.733031 231.032752 
L 264.167216 230.924122 
L 264.384308 231.074716 
L 264.818493 231.007207 
L 265.035586 231.067222 
L 265.252678 231.005135 
L 265.46977 231.141853 
L 265.686863 230.982765 
L 265.903955 231.127342 
L 266.33814 231.011342 
L 266.555233 231.150281 
L 266.772325 230.94284 
L 266.989418 231.217326 
L 267.20651 231.082536 
L 267.423603 231.221063 
L 267.640695 230.964406 
L 267.857788 231.277342 
L 268.07488 230.990076 
L 268.291973 231.27463 
L 268.509065 231.187475 
L 268.726157 231.26027 
L 268.94325 230.985189 
L 269.160342 231.301946 
L 269.377435 231.00132 
L 269.594527 231.361256 
L 269.81162 231.251901 
L 270.028712 231.371723 
L 270.67999 231.305402 
L 270.897082 231.432653 
L 271.114175 231.281935 
L 271.331267 231.442172 
L 271.548359 231.414242 
L 271.765452 231.268306 
L 272.199637 231.422827 
L 272.633822 231.504121 
L 272.850914 231.381287 
L 274.370562 231.567345 
L 274.587654 231.266464 
L 274.804746 231.530732 
L 275.456024 231.598032 
L 276.758579 231.638839 
L 277.192764 231.69973 
L 277.409856 231.647901 
L 277.626949 231.761307 
L 278.495318 231.693197 
L 278.712411 231.773459 
L 278.929503 231.514268 
L 279.146596 231.823766 
L 279.363688 231.857968 
L 279.580781 231.758942 
L 280.014966 231.887976 
L 280.232058 231.694732 
L 280.449151 231.888309 
L 280.883335 231.816285 
L 281.100428 231.710419 
L 281.31752 231.88126 
L 281.534613 231.791426 
L 282.18589 231.950095 
L 282.402983 231.897325 
L 282.620075 231.995803 
L 282.837168 231.792432 
L 283.05426 231.9077 
L 283.271353 231.837565 
L 283.92263 231.957818 
L 284.356815 231.866729 
L 284.573907 232.072289 
L 285.225185 231.928757 
L 285.442277 232.078352 
L 285.65937 231.898723 
L 285.876462 232.195684 
L 286.310647 232.106942 
L 286.52774 232.206856 
L 286.744832 232.057367 
L 287.179017 232.18838 
L 288.264479 232.233722 
L 288.915757 232.274849 
L 289.132849 232.187021 
L 289.567034 232.271622 
L 289.784127 231.933853 
L 290.001219 232.27973 
L 291.520866 232.433414 
L 291.737959 232.327848 
L 292.172144 232.464826 
L 292.389236 232.357934 
L 292.823421 232.431323 
L 294.343068 232.420876 
L 294.560161 232.283754 
L 294.777253 232.529605 
L 295.211438 232.514878 
L 295.428531 232.562271 
L 295.645623 232.174797 
L 295.862716 232.563023 
L 296.296901 232.586536 
L 297.816548 232.619576 
L 298.90201 232.710997 
L 299.336195 232.691345 
L 299.553288 232.775031 
L 300.421657 232.385453 
L 300.63875 232.753764 
L 301.072935 232.75643 
L 301.290027 232.435269 
L 301.50712 232.79776 
L 301.724212 232.510638 
L 302.158397 232.848681 
L 302.37549 232.889097 
L 302.592582 232.635863 
L 303.026767 232.875213 
L 303.243859 232.764218 
L 303.460952 232.87375 
L 303.678044 232.837908 
L 303.895137 232.931936 
L 304.763507 232.786418 
L 304.980599 232.986137 
L 305.197692 232.913133 
L 305.631877 232.944682 
L 305.848969 232.866393 
L 306.066061 232.967255 
L 306.717339 232.799217 
L 306.934431 233.047576 
L 307.151524 232.899779 
L 307.585709 233.066425 
L 308.019894 232.99659 
L 308.671171 233.106801 
L 308.888264 233.036496 
L 309.105356 232.815694 
L 309.322448 232.918353 
L 309.539541 232.811598 
L 309.756633 233.076604 
L 309.973726 232.987182 
L 310.407911 233.197034 
L 311.493373 233.184169 
L 311.710466 232.858847 
L 311.927558 233.288122 
L 312.361743 232.873495 
L 312.578835 233.151829 
L 312.795928 233.093434 
L 313.01302 233.233019 
L 314.315575 233.119992 
L 314.532668 232.942997 
L 314.74976 233.251705 
L 315.61813 233.184444 
L 315.835222 233.348974 
L 316.052315 233.25963 
L 316.4865 233.403207 
L 316.920685 233.262923 
L 317.35487 233.173736 
L 317.571962 233.428779 
L 318.006147 233.261642 
L 318.22324 233.444916 
L 318.874517 233.509629 
L 319.091609 233.379471 
L 319.525794 233.471964 
L 320.177072 233.456291 
L 320.394164 233.593936 
L 320.611257 233.466457 
L 321.479627 233.606774 
L 321.696719 233.222083 
L 322.130904 233.529791 
L 322.347996 233.414366 
L 322.565089 233.597555 
L 322.782181 233.497745 
L 323.216366 233.640035 
L 324.301829 233.676596 
L 324.736013 233.685494 
L 324.953106 233.556944 
L 325.170198 233.640714 
L 325.387291 233.570644 
L 325.821476 233.687925 
L 326.255661 233.704944 
L 326.472753 233.679268 
L 326.689846 233.349339 
L 327.124031 233.826661 
L 327.341123 233.445275 
L 327.558216 233.630673 
L 329.077863 233.762411 
L 329.294955 233.579529 
L 329.72914 233.797496 
L 329.946233 233.801226 
L 330.163325 233.513595 
L 330.380418 233.8829 
L 331.248787 233.752036 
L 331.46588 233.641838 
L 331.682972 233.764574 
L 332.117157 233.748214 
L 332.33425 233.920911 
L 332.768435 233.680418 
L 332.985527 233.940243 
L 333.419712 233.858687 
L 333.853897 233.841838 
L 334.070989 233.846587 
L 334.288082 233.984337 
L 334.505174 233.809027 
L 334.939359 234.024203 
L 335.156452 233.792491 
L 335.590637 233.895895 
L 335.807729 233.64943 
L 336.024822 233.955191 
L 336.459007 233.589532 
L 336.676099 233.919284 
L 336.893192 233.828366 
L 337.110284 234.100095 
L 337.327376 233.952741 
L 337.544469 234.029352 
L 337.978654 233.935232 
L 338.195746 234.126836 
L 339.498301 234.056543 
L 339.715394 233.552612 
L 339.932486 234.143548 
L 340.149579 234.072844 
L 340.583763 234.122093 
L 341.017948 234.093366 
L 341.235041 234.149422 
L 341.452133 233.707518 
L 341.669226 234.133814 
L 342.103411 234.185898 
L 342.320503 234.085231 
L 342.537596 234.242189 
L 342.971781 234.091118 
L 343.405966 234.178136 
L 344.274335 234.105629 
L 344.491428 234.20097 
L 344.70852 233.947587 
L 345.359798 234.137734 
L 345.793983 234.08058 
L 346.011075 234.245998 
L 347.31363 234.239197 
L 347.530722 234.1812 
L 347.747815 234.322798 
L 348.182 234.322857 
L 348.399092 234.39343 
L 348.616185 234.307647 
L 348.833277 234.400342 
L 349.484555 234.190856 
L 349.701647 234.346893 
L 349.918739 234.27875 
L 350.135832 234.38936 
L 350.570017 234.232356 
L 351.004202 234.43821 
L 352.306757 234.44703 
L 352.740942 234.480918 
L 354.043496 234.426704 
L 354.260589 234.529187 
L 355.128959 234.454595 
L 355.563144 234.535335 
L 355.997328 234.45078 
L 356.214421 234.538353 
L 356.431513 234.330729 
L 356.648606 234.584067 
L 357.951161 234.470413 
L 358.385346 234.628115 
L 358.602438 234.52398 
L 358.819531 234.639888 
L 359.253715 234.451198 
L 359.6879 234.65287 
L 360.122085 234.481487 
L 360.55627 234.63668 
L 360.773363 234.636164 
L 360.990455 234.203289 
L 361.207548 234.599322 
L 361.641733 234.730506 
L 361.858825 234.582381 
L 362.075918 234.582002 
L 362.510102 234.731937 
L 363.16138 234.55238 
L 363.378472 234.680898 
L 363.812657 234.69401 
L 364.02975 234.474241 
L 364.246842 234.479879 
L 364.463935 234.673764 
L 365.115212 234.686334 
L 365.332305 234.787059 
L 365.549397 234.621307 
L 365.766489 234.829702 
L 367.503229 234.570974 
L 367.720322 234.791442 
L 368.154507 234.826128 
L 368.371599 234.570941 
L 368.588691 234.721954 
L 368.805784 234.645618 
L 369.022876 234.782694 
L 369.891246 234.643658 
L 370.108339 234.841808 
L 370.325431 234.782936 
L 370.542524 234.495684 
L 370.759616 234.904914 
L 370.976709 234.699394 
L 371.193801 234.902947 
L 371.410894 234.948472 
L 371.845078 234.685726 
L 372.062171 234.937901 
L 373.364726 234.906195 
L 373.581818 234.971548 
L 373.581818 234.971548 
" style="fill:none;stroke:#0000ff;stroke-linecap:square;stroke-width:1.5;"/>
   </g>
   <g id="patch_3">
    <path d="M 54 252 
L 54 34.56 
" style="fill:none;stroke:#000000;stroke-linecap:square;stroke-linejoin:miter;stroke-width:0.8;"/>
   </g>
   <g id="patch_4">
    <path d="M 388.8 252 
L 388.8 34.56 
" style="fill:none;stroke:#000000;stroke-linecap:square;stroke-linejoin:miter;stroke-width:0.8;"/>
   </g>
   <g id="patch_5">
    <path d="M 54 252 
L 388.8 252 
" style="fill:none;stroke:#000000;stroke-linecap:square;stroke-linejoin:miter;stroke-width:0.8;"/>
   </g>
   <g id="patch_6">
    <path d="M 54 34.56 
L 388.8 34.56 
" style="fill:none;stroke:#000000;stroke-linecap:square;stroke-linejoin:miter;stroke-width:0.8;"/>
   </g>
   <g id="legend_1">
    <g id="patch_7">
     <path d="M 300.41875 71.91625 
L 381.8 71.91625 
Q 383.8 71.91625 383.8 69.91625 
L 383.8 41.56 
Q 383.8 39.56 381.8 39.56 
L 300.41875 39.56 
Q 298.41875 39.56 298.41875 41.56 
L 298.41875 69.91625 
Q 298.41875 71.91625 300.41875 71.91625 
z
" style="fill:#ffffff;opacity:0.8;stroke:#cccccc;stroke-linejoin:miter;"/>
    </g>
    <g id="line2d_19">
     <path d="M 302.41875 47.658437 
L 322.41875 47.658437 
" style="fill:none;stroke:#ff0000;stroke-linecap:square;stroke-width:1.5;"/>
    </g>
    <g id="line2d_20"/>
    <g id="text_19">
     <!-- Training -->
     <defs>
      <path d="M -0.296875 72.90625 
L 61.375 72.90625 
L 61.375 64.59375 
L 35.5 64.59375 
L 35.5 0 
L 25.59375 0 
L 25.59375 64.59375 
L -0.296875 64.59375 
z
" id="DejaVuSans-84"/>
      <path d="M 41.109375 46.296875 
Q 39.59375 47.171875 37.8125 47.578125 
Q 36.03125 48 33.890625 48 
Q 26.265625 48 22.1875 43.046875 
Q 18.109375 38.09375 18.109375 28.8125 
L 18.109375 0 
L 9.078125 0 
L 9.078125 54.6875 
L 18.109375 54.6875 
L 18.109375 46.1875 
Q 20.953125 51.171875 25.484375 53.578125 
Q 30.03125 56 36.53125 56 
Q 37.453125 56 38.578125 55.875 
Q 39.703125 55.765625 41.0625 55.515625 
z
" id="DejaVuSans-114"/>
      <path d="M 34.28125 27.484375 
Q 23.390625 27.484375 19.1875 25 
Q 14.984375 22.515625 14.984375 16.5 
Q 14.984375 11.71875 18.140625 8.90625 
Q 21.296875 6.109375 26.703125 6.109375 
Q 34.1875 6.109375 38.703125 11.40625 
Q 43.21875 16.703125 43.21875 25.484375 
L 43.21875 27.484375 
z
M 52.203125 31.203125 
L 52.203125 0 
L 43.21875 0 
L 43.21875 8.296875 
Q 40.140625 3.328125 35.546875 0.953125 
Q 30.953125 -1.421875 24.3125 -1.421875 
Q 15.921875 -1.421875 10.953125 3.296875 
Q 6 8.015625 6 15.921875 
Q 6 25.140625 12.171875 29.828125 
Q 18.359375 34.515625 30.609375 34.515625 
L 43.21875 34.515625 
L 43.21875 35.40625 
Q 43.21875 41.609375 39.140625 45 
Q 35.0625 48.390625 27.6875 48.390625 
Q 23 48.390625 18.546875 47.265625 
Q 14.109375 46.140625 10.015625 43.890625 
L 10.015625 52.203125 
Q 14.9375 54.109375 19.578125 55.046875 
Q 24.21875 56 28.609375 56 
Q 40.484375 56 46.34375 49.84375 
Q 52.203125 43.703125 52.203125 31.203125 
z
" id="DejaVuSans-97"/>
      <path d="M 9.421875 54.6875 
L 18.40625 54.6875 
L 18.40625 0 
L 9.421875 0 
z
M 9.421875 75.984375 
L 18.40625 75.984375 
L 18.40625 64.59375 
L 9.421875 64.59375 
z
" id="DejaVuSans-105"/>
      <path d="M 54.890625 33.015625 
L 54.890625 0 
L 45.90625 0 
L 45.90625 32.71875 
Q 45.90625 40.484375 42.875 44.328125 
Q 39.84375 48.1875 33.796875 48.1875 
Q 26.515625 48.1875 22.3125 43.546875 
Q 18.109375 38.921875 18.109375 30.90625 
L 18.109375 0 
L 9.078125 0 
L 9.078125 54.6875 
L 18.109375 54.6875 
L 18.109375 46.1875 
Q 21.34375 51.125 25.703125 53.5625 
Q 30.078125 56 35.796875 56 
Q 45.21875 56 50.046875 50.171875 
Q 54.890625 44.34375 54.890625 33.015625 
z
" id="DejaVuSans-110"/>
      <path d="M 45.40625 27.984375 
Q 45.40625 37.75 41.375 43.109375 
Q 37.359375 48.484375 30.078125 48.484375 
Q 22.859375 48.484375 18.828125 43.109375 
Q 14.796875 37.75 14.796875 27.984375 
Q 14.796875 18.265625 18.828125 12.890625 
Q 22.859375 7.515625 30.078125 7.515625 
Q 37.359375 7.515625 41.375 12.890625 
Q 45.40625 18.265625 45.40625 27.984375 
z
M 54.390625 6.78125 
Q 54.390625 -7.171875 48.1875 -13.984375 
Q 42 -20.796875 29.203125 -20.796875 
Q 24.46875 -20.796875 20.265625 -20.09375 
Q 16.0625 -19.390625 12.109375 -17.921875 
L 12.109375 -9.1875 
Q 16.0625 -11.328125 19.921875 -12.34375 
Q 23.78125 -13.375 27.78125 -13.375 
Q 36.625 -13.375 41.015625 -8.765625 
Q 45.40625 -4.15625 45.40625 5.171875 
L 45.40625 9.625 
Q 42.625 4.78125 38.28125 2.390625 
Q 33.9375 0 27.875 0 
Q 17.828125 0 11.671875 7.65625 
Q 5.515625 15.328125 5.515625 27.984375 
Q 5.515625 40.671875 11.671875 48.328125 
Q 17.828125 56 27.875 56 
Q 33.9375 56 38.28125 53.609375 
Q 42.625 51.21875 45.40625 46.390625 
L 45.40625 54.6875 
L 54.390625 54.6875 
z
" id="DejaVuSans-103"/>
     </defs>
     <g transform="translate(330.41875 51.158437)scale(0.1 -0.1)">
      <use xlink:href="#DejaVuSans-84"/>
      <use x="46.333984" xlink:href="#DejaVuSans-114"/>
      <use x="87.447266" xlink:href="#DejaVuSans-97"/>
      <use x="148.726562" xlink:href="#DejaVuSans-105"/>
      <use x="176.509766" xlink:href="#DejaVuSans-110"/>
      <use x="239.888672" xlink:href="#DejaVuSans-105"/>
      <use x="267.671875" xlink:href="#DejaVuSans-110"/>
      <use x="331.050781" xlink:href="#DejaVuSans-103"/>
     </g>
    </g>
    <g id="line2d_21">
     <path d="M 302.41875 62.336562 
L 322.41875 62.336562 
" style="fill:none;stroke:#0000ff;stroke-linecap:square;stroke-width:1.5;"/>
    </g>
    <g id="line2d_22"/>
    <g id="text_20">
     <!-- Validation -->
     <defs>
      <path d="M 28.609375 0 
L 0.78125 72.90625 
L 11.078125 72.90625 
L 34.1875 11.53125 
L 57.328125 72.90625 
L 67.578125 72.90625 
L 39.796875 0 
z
" id="DejaVuSans-86"/>
      <path d="M 9.421875 75.984375 
L 18.40625 75.984375 
L 18.40625 0 
L 9.421875 0 
z
" id="DejaVuSans-108"/>
      <path d="M 45.40625 46.390625 
L 45.40625 75.984375 
L 54.390625 75.984375 
L 54.390625 0 
L 45.40625 0 
L 45.40625 8.203125 
Q 42.578125 3.328125 38.25 0.953125 
Q 33.9375 -1.421875 27.875 -1.421875 
Q 17.96875 -1.421875 11.734375 6.484375 
Q 5.515625 14.40625 5.515625 27.296875 
Q 5.515625 40.1875 11.734375 48.09375 
Q 17.96875 56 27.875 56 
Q 33.9375 56 38.25 53.625 
Q 42.578125 51.265625 45.40625 46.390625 
z
M 14.796875 27.296875 
Q 14.796875 17.390625 18.875 11.75 
Q 22.953125 6.109375 30.078125 6.109375 
Q 37.203125 6.109375 41.296875 11.75 
Q 45.40625 17.390625 45.40625 27.296875 
Q 45.40625 37.203125 41.296875 42.84375 
Q 37.203125 48.484375 30.078125 48.484375 
Q 22.953125 48.484375 18.875 42.84375 
Q 14.796875 37.203125 14.796875 27.296875 
z
" id="DejaVuSans-100"/>
      <path d="M 18.3125 70.21875 
L 18.3125 54.6875 
L 36.8125 54.6875 
L 36.8125 47.703125 
L 18.3125 47.703125 
L 18.3125 18.015625 
Q 18.3125 11.328125 20.140625 9.421875 
Q 21.96875 7.515625 27.59375 7.515625 
L 36.8125 7.515625 
L 36.8125 0 
L 27.59375 0 
Q 17.1875 0 13.234375 3.875 
Q 9.28125 7.765625 9.28125 18.015625 
L 9.28125 47.703125 
L 2.6875 47.703125 
L 2.6875 54.6875 
L 9.28125 54.6875 
L 9.28125 70.21875 
z
" id="DejaVuSans-116"/>
     </defs>
     <g transform="translate(330.41875 65.836562)scale(0.1 -0.1)">
      <use xlink:href="#DejaVuSans-86"/>
      <use x="60.658203" xlink:href="#DejaVuSans-97"/>
      <use x="121.9375" xlink:href="#DejaVuSans-108"/>
      <use x="149.720703" xlink:href="#DejaVuSans-105"/>
      <use x="177.503906" xlink:href="#DejaVuSans-100"/>
      <use x="240.980469" xlink:href="#DejaVuSans-97"/>
      <use x="302.259766" xlink:href="#DejaVuSans-116"/>
      <use x="341.46875" xlink:href="#DejaVuSans-105"/>
      <use x="369.251953" xlink:href="#DejaVuSans-111"/>
      <use x="430.433594" xlink:href="#DejaVuSans-110"/>
     </g>
    </g>
   </g>
  </g>
 </g>
 <defs>
  <clipPath id="pd6cce6a96b">
   <rect height="217.44" width="334.8" x="54" y="34.56"/>
  </clipPath>
 </defs>
</svg>
